<svg width="1440" height="1406" viewBox="0 0 1440 1406" fill="none" xmlns="http://www.w3.org/2000/svg">
<g style="mix-blend-mode:multiply" opacity="0.5">
<g clip-path="url(#clip0)">
<path fill-rule="evenodd" clip-rule="evenodd" d="M1658.46 844.492C1597.61 844.492 1547.84 894.226 1547.84 955.033C1547.84 1065.98 1457.01 1156.75 1345.99 1156.75H1334.84H224.533H-11.0629C-155.263 1156.75 -273.264 1038.83 -273.264 894.726C-273.264 750.622 -155.263 632.699 -11.0629 632.699H-4.17685C24.7758 632.699 48.4387 609.021 48.4387 580.118C48.4387 551.185 24.7758 527.538 -4.17685 527.538H-33.1295C-103.492 527.538 -161.053 470.015 -161.053 399.699C-161.053 329.477 -103.617 271.985 -33.3799 271.86C-33.286 271.86 91.3512 271.86 91.4451 271.86C152.293 271.86 202.06 222.095 202.06 161.319C202.06 50.3709 292.893 -40.4019 403.914 -40.4019C600.886 -40.4019 1238.38 -40.4019 1435.38 -40.4019C1579.58 -40.4019 1697.58 77.5214 1697.58 221.626C1697.58 365.73 1579.58 483.653 1435.38 483.653C1406.43 483.653 1382.76 507.331 1382.76 536.233C1382.76 565.167 1406.46 588.814 1435.38 588.814H1658.46C1825.82 588.814 1825.85 844.492 1658.46 844.492Z" fill="#E7E2EF"/>
<path fill-rule="evenodd" clip-rule="evenodd" d="M-50.5635 1394.32H38.2663H38.2976H38.3289H127.159V1445.84H38.3289H38.2663H-50.5635V1394.32Z" fill="#C7C0DD"/>
<path fill-rule="evenodd" clip-rule="evenodd" d="M128.724 1394.32H217.553H217.585H306.415V1445.84H217.585H217.553H128.724V1394.32Z" fill="#C7C0DD"/>
<path fill-rule="evenodd" clip-rule="evenodd" d="M307.979 1394.32H396.809H396.841H485.67V1445.84H396.841H396.809H307.979V1394.32Z" fill="#C7C0DD"/>
<path fill-rule="evenodd" clip-rule="evenodd" d="M487.235 1394.32H576.065H576.097H576.128H664.958V1445.84H576.128H576.065H487.235V1394.32Z" fill="#C7C0DD"/>
<path fill-rule="evenodd" clip-rule="evenodd" d="M666.522 1394.32H755.352H755.384H844.213V1445.84H755.384H755.352H666.522V1394.32Z" fill="#C7C0DD"/>
<path fill-rule="evenodd" clip-rule="evenodd" d="M845.778 1394.32H934.608H934.639H1023.47V1445.84H934.639H934.608H845.778V1394.32Z" fill="#C7C0DD"/>
<path fill-rule="evenodd" clip-rule="evenodd" d="M1025.03 1394.32H1113.86H1113.9H1113.93H1202.72V1445.84H1113.93H1113.86H1025.03V1394.32Z" fill="#C7C0DD"/>
<path fill-rule="evenodd" clip-rule="evenodd" d="M1204.32 1394.32H1293.15H1293.18H1382.01V1445.84H1293.18H1293.15H1204.32V1394.32Z" fill="#C7C0DD"/>
<path fill-rule="evenodd" clip-rule="evenodd" d="M1383.58 1394.32H1472.41H1472.44H1561.27V1445.84H1472.44H1472.41H1383.58V1394.32Z" fill="#C7C0DD"/>
<path fill-rule="evenodd" clip-rule="evenodd" d="M-140.176 1341.24H-51.346H-51.3147H37.5151V1392.76H-51.3147H-51.346H-140.176V1341.24Z" fill="#C7C0DD"/>
<path fill-rule="evenodd" clip-rule="evenodd" d="M39.0801 1341.24H127.91H127.941H216.771V1392.76H127.941H127.91H39.0801V1341.24Z" fill="#C7C0DD"/>
<path fill-rule="evenodd" clip-rule="evenodd" d="M218.336 1341.24H307.166H307.197H307.228H396.058V1392.76H307.228H307.166H218.336V1341.24Z" fill="#C7C0DD"/>
<path fill-rule="evenodd" clip-rule="evenodd" d="M397.623 1341.24H486.453H486.484H575.314V1392.76H486.484H486.453H397.623V1341.24Z" fill="#C7C0DD"/>
<path fill-rule="evenodd" clip-rule="evenodd" d="M576.879 1341.24H665.709H665.74H754.57V1392.76H665.74H665.709H576.879V1341.24Z" fill="#C7C0DD"/>
<path fill-rule="evenodd" clip-rule="evenodd" d="M756.135 1341.24H844.965H844.996H845.027H933.826V1392.76H845.027H844.965H756.135V1341.24Z" fill="#C7C0DD"/>
<path fill-rule="evenodd" clip-rule="evenodd" d="M935.422 1341.24H1024.25H1024.28H1113.11V1392.76H1024.28H1024.25H935.422V1341.24Z" fill="#C7C0DD"/>
<path fill-rule="evenodd" clip-rule="evenodd" d="M1114.68 1341.24H1203.51H1203.54H1292.37V1392.76H1203.54H1203.51H1114.68V1341.24Z" fill="#C7C0DD"/>
<path fill-rule="evenodd" clip-rule="evenodd" d="M1293.93 1341.24H1382.76H1382.79H1471.62V1392.76H1382.79H1382.76H1293.93V1341.24Z" fill="#C7C0DD"/>
<path fill-rule="evenodd" clip-rule="evenodd" d="M-50.5635 1288.16H38.2663H38.2976H38.3289H127.159V1339.68H38.3289H38.2663H-50.5635V1288.16Z" fill="#C7C0DD"/>
<path fill-rule="evenodd" clip-rule="evenodd" d="M128.724 1288.16H217.553H217.585H306.415V1339.68H217.585H217.553H128.724V1288.16Z" fill="#C7C0DD"/>
<path fill-rule="evenodd" clip-rule="evenodd" d="M307.979 1288.16H396.809H396.841H485.67V1339.68H396.841H396.809H307.979V1288.16Z" fill="#C7C0DD"/>
<path fill-rule="evenodd" clip-rule="evenodd" d="M487.235 1288.16H576.065H576.097H576.128H664.958V1339.68H576.128H576.065H487.235V1288.16Z" fill="#C7C0DD"/>
<path fill-rule="evenodd" clip-rule="evenodd" d="M666.522 1288.16H755.352H755.384H844.213V1339.68H755.384H755.352H666.522V1288.16Z" fill="#C7C0DD"/>
<path fill-rule="evenodd" clip-rule="evenodd" d="M845.778 1288.16H934.608H934.639H1023.47V1339.68H934.639H934.608H845.778V1288.16Z" fill="#C7C0DD"/>
<path fill-rule="evenodd" clip-rule="evenodd" d="M1025.03 1288.16H1113.86H1113.9H1113.93H1202.72V1339.68H1113.93H1113.86H1025.03V1288.16Z" fill="#C7C0DD"/>
<path fill-rule="evenodd" clip-rule="evenodd" d="M1204.32 1288.16H1293.15H1293.18H1382.01V1339.68H1293.18H1293.15H1204.32V1288.16Z" fill="#C7C0DD"/>
<path fill-rule="evenodd" clip-rule="evenodd" d="M1383.58 1288.16H1472.41H1472.44H1561.27V1339.68H1472.44H1472.41H1383.58V1288.16Z" fill="#C7C0DD"/>
<path fill-rule="evenodd" clip-rule="evenodd" d="M-140.176 1235.08H-51.346H-51.3147H37.5151V1286.59H-51.3147H-51.346H-140.176V1235.08Z" fill="#C7C0DD"/>
<path fill-rule="evenodd" clip-rule="evenodd" d="M39.0801 1235.08H127.91H127.941H216.771V1286.59H127.941H127.91H39.0801V1235.08Z" fill="#C7C0DD"/>
<path fill-rule="evenodd" clip-rule="evenodd" d="M218.336 1235.08H307.166H307.197H307.228H396.058V1286.59H307.228H307.166H218.336V1235.08Z" fill="#C7C0DD"/>
<path fill-rule="evenodd" clip-rule="evenodd" d="M397.623 1235.08H486.453H486.484H575.314V1286.59H486.484H486.453H397.623V1235.08Z" fill="#C7C0DD"/>
<path fill-rule="evenodd" clip-rule="evenodd" d="M576.879 1235.08H665.709H665.74H754.57V1286.59H665.74H665.709H576.879V1235.08Z" fill="#C7C0DD"/>
<path fill-rule="evenodd" clip-rule="evenodd" d="M756.135 1235.08H844.965H844.996H845.027H933.826V1286.59H845.027H844.965H756.135V1235.08Z" fill="#C7C0DD"/>
<path fill-rule="evenodd" clip-rule="evenodd" d="M935.422 1235.08H1024.25H1024.28H1113.11V1286.59H1024.28H1024.25H935.422V1235.08Z" fill="#C7C0DD"/>
<path fill-rule="evenodd" clip-rule="evenodd" d="M1114.68 1235.08H1203.51H1203.54H1292.37V1286.59H1203.54H1203.51H1114.68V1235.08Z" fill="#C7C0DD"/>
<path fill-rule="evenodd" clip-rule="evenodd" d="M1293.93 1235.08H1382.76H1382.79H1471.62V1286.59H1382.79H1382.76H1293.93V1235.08Z" fill="#C7C0DD"/>
<path fill-rule="evenodd" clip-rule="evenodd" d="M-50.5635 1182H38.2663H38.2976H38.3289H127.159V1233.51H38.3289H38.2663H-50.5635V1182Z" fill="#C7C0DD"/>
<path fill-rule="evenodd" clip-rule="evenodd" d="M128.724 1182H217.553H217.585H306.415V1233.51H217.585H217.553H128.724V1182Z" fill="#C7C0DD"/>
<path fill-rule="evenodd" clip-rule="evenodd" d="M307.979 1182H396.809H396.841H485.67V1233.51H396.841H396.809H307.979V1182Z" fill="#C7C0DD"/>
<path fill-rule="evenodd" clip-rule="evenodd" d="M487.235 1182H576.065H576.097H576.128H664.958V1233.51H576.128H576.065H487.235V1182Z" fill="#C7C0DD"/>
<path fill-rule="evenodd" clip-rule="evenodd" d="M666.522 1182H755.352H755.384H844.213V1233.51H755.384H755.352H666.522V1182Z" fill="#C7C0DD"/>
<path fill-rule="evenodd" clip-rule="evenodd" d="M845.778 1182H934.608H934.639H1023.47V1233.51H934.639H934.608H845.778V1182Z" fill="#C7C0DD"/>
<path fill-rule="evenodd" clip-rule="evenodd" d="M1025.03 1182H1113.86H1113.9H1113.93H1202.72V1233.51H1113.93H1113.86H1025.03V1182Z" fill="#C7C0DD"/>
<path fill-rule="evenodd" clip-rule="evenodd" d="M1204.32 1182H1293.15H1293.18H1382.01V1233.51H1293.18H1293.15H1204.32V1182Z" fill="#C7C0DD"/>
<path fill-rule="evenodd" clip-rule="evenodd" d="M1383.58 1182H1472.41H1472.44H1561.27V1233.51H1472.44H1472.41H1383.58V1182Z" fill="#C7C0DD"/>
<path fill-rule="evenodd" clip-rule="evenodd" d="M-140.176 1128.92H-51.346H-51.3147H37.5151V1180.43H-51.3147H-51.346H-140.176V1128.92Z" fill="#C7C0DD"/>
<path fill-rule="evenodd" clip-rule="evenodd" d="M39.0801 1128.92H127.91H127.941H216.771V1180.43H127.941H127.91H39.0801V1128.92Z" fill="#C7C0DD"/>
<path fill-rule="evenodd" clip-rule="evenodd" d="M218.336 1128.92H307.166H307.197H307.228H396.058V1180.43H307.228H307.166H218.336V1128.92Z" fill="#C7C0DD"/>
<path fill-rule="evenodd" clip-rule="evenodd" d="M397.623 1128.92H486.453H486.484H575.314V1180.43H486.484H486.453H397.623V1128.92Z" fill="#C7C0DD"/>
<path fill-rule="evenodd" clip-rule="evenodd" d="M576.879 1128.92H665.709H665.74H754.57V1180.43H665.74H665.709H576.879V1128.92Z" fill="#C7C0DD"/>
<path fill-rule="evenodd" clip-rule="evenodd" d="M756.135 1128.92H844.965H844.996H845.027H933.826V1180.43H845.027H844.965H756.135V1128.92Z" fill="#C7C0DD"/>
<path fill-rule="evenodd" clip-rule="evenodd" d="M935.422 1128.92H1024.25H1024.28H1113.11V1180.43H1024.28H1024.25H935.422V1128.92Z" fill="#C7C0DD"/>
<path fill-rule="evenodd" clip-rule="evenodd" d="M1114.68 1128.92H1203.51H1203.54H1292.37V1180.43H1203.54H1203.51H1114.68V1128.92Z" fill="#C7C0DD"/>
<path fill-rule="evenodd" clip-rule="evenodd" d="M1293.93 1128.92H1382.76H1382.79H1471.62V1180.43H1382.79H1382.76H1293.93V1128.92Z" fill="#C7C0DD"/>
<path fill-rule="evenodd" clip-rule="evenodd" d="M-50.5635 1075.83H38.2663H38.2976H38.3289H127.159V1127.35H38.3289H38.2663H-50.5635V1075.83Z" fill="#C7C0DD"/>
<path fill-rule="evenodd" clip-rule="evenodd" d="M128.724 1075.83H217.553H217.585H306.415V1127.35H217.585H217.553H128.724V1075.83Z" fill="#C7C0DD"/>
<path fill-rule="evenodd" clip-rule="evenodd" d="M307.979 1075.83H396.809H396.841H485.67V1127.35H396.841H396.809H307.979V1075.83Z" fill="#C7C0DD"/>
<path fill-rule="evenodd" clip-rule="evenodd" d="M487.235 1075.83H576.065H576.097H576.128H664.958V1127.35H576.128H576.065H487.235V1075.83Z" fill="#C7C0DD"/>
<path fill-rule="evenodd" clip-rule="evenodd" d="M666.522 1075.83H755.352H755.384H844.213V1127.35H755.384H755.352H666.522V1075.83Z" fill="#C7C0DD"/>
<path fill-rule="evenodd" clip-rule="evenodd" d="M845.778 1075.83H934.608H934.639H1023.47V1127.35H934.639H934.608H845.778V1075.83Z" fill="#C7C0DD"/>
<path fill-rule="evenodd" clip-rule="evenodd" d="M1025.03 1075.83H1113.86H1113.9H1113.93H1202.72V1127.35H1113.93H1113.86H1025.03V1075.83Z" fill="#C7C0DD"/>
<path fill-rule="evenodd" clip-rule="evenodd" d="M1204.32 1075.83H1293.15H1293.18H1382.01V1127.35H1293.18H1293.15H1204.32V1075.83Z" fill="#C7C0DD"/>
<path fill-rule="evenodd" clip-rule="evenodd" d="M1383.58 1075.83H1472.41H1472.44H1561.27V1127.35H1472.44H1472.41H1383.58V1075.83Z" fill="#C7C0DD"/>
<path fill-rule="evenodd" clip-rule="evenodd" d="M-140.176 1022.75H-51.346H-51.3147H37.5151V1074.27H-51.3147H-51.346H-140.176V1022.75Z" fill="#C7C0DD"/>
<path fill-rule="evenodd" clip-rule="evenodd" d="M39.0801 1022.75H127.91H127.941H216.771V1074.27H127.941H127.91H39.0801V1022.75Z" fill="#C7C0DD"/>
<path fill-rule="evenodd" clip-rule="evenodd" d="M218.336 1022.75H307.166H307.197H307.228H396.058V1074.27H307.228H307.166H218.336V1022.75Z" fill="#C7C0DD"/>
<path fill-rule="evenodd" clip-rule="evenodd" d="M397.623 1022.75H486.453H486.484H575.314V1074.27H486.484H486.453H397.623V1022.75Z" fill="#C7C0DD"/>
<path fill-rule="evenodd" clip-rule="evenodd" d="M576.879 1022.75H665.709H665.74H754.57V1074.27H665.74H665.709H576.879V1022.75Z" fill="#C7C0DD"/>
<path fill-rule="evenodd" clip-rule="evenodd" d="M756.135 1022.75H844.965H844.996H845.027H933.826V1074.27H845.027H844.965H756.135V1022.75Z" fill="#C7C0DD"/>
<path fill-rule="evenodd" clip-rule="evenodd" d="M935.422 1022.75H1024.25H1024.28H1113.11V1074.27H1024.28H1024.25H935.422V1022.75Z" fill="#C7C0DD"/>
<path fill-rule="evenodd" clip-rule="evenodd" d="M1114.68 1022.75H1203.51H1203.54H1292.37V1074.27H1203.54H1203.51H1114.68V1022.75Z" fill="#C7C0DD"/>
<path fill-rule="evenodd" clip-rule="evenodd" d="M1293.93 1022.75H1382.76H1382.79H1471.62V1074.27H1382.79H1382.76H1293.93V1022.75Z" fill="#C7C0DD"/>
<path fill-rule="evenodd" clip-rule="evenodd" d="M-50.5635 969.672H38.2663H38.2976H38.3289H127.159V1021.19H38.3289H38.2663H-50.5635V969.672Z" fill="#C7C0DD"/>
<path fill-rule="evenodd" clip-rule="evenodd" d="M128.724 969.672H217.553H217.585H306.415V1021.19H217.585H217.553H128.724V969.672Z" fill="#C7C0DD"/>
<path fill-rule="evenodd" clip-rule="evenodd" d="M307.979 969.672H396.809H396.841H485.67V1021.19H396.841H396.809H307.979V969.672Z" fill="#C7C0DD"/>
<path fill-rule="evenodd" clip-rule="evenodd" d="M487.235 969.672H576.065H576.097H576.128H664.958V1021.19H576.128H576.065H487.235V969.672Z" fill="#C7C0DD"/>
<path fill-rule="evenodd" clip-rule="evenodd" d="M666.522 969.672H755.352H755.384H844.213V1021.19H755.384H755.352H666.522V969.672Z" fill="#C7C0DD"/>
<path fill-rule="evenodd" clip-rule="evenodd" d="M845.778 969.672H934.608H934.639H1023.47V1021.19H934.639H934.608H845.778V969.672Z" fill="#C7C0DD"/>
<path fill-rule="evenodd" clip-rule="evenodd" d="M1025.03 969.672H1113.86H1113.9H1113.93H1202.72V1021.19H1113.93H1113.86H1025.03V969.672Z" fill="#C7C0DD"/>
<path fill-rule="evenodd" clip-rule="evenodd" d="M1204.32 969.672H1293.15H1293.18H1382.01V1021.19H1293.18H1293.15H1204.32V969.672Z" fill="#C7C0DD"/>
<path fill-rule="evenodd" clip-rule="evenodd" d="M1383.58 969.672H1472.41H1472.44H1561.27V1021.19H1472.44H1472.41H1383.58V969.672Z" fill="#C7C0DD"/>
<path fill-rule="evenodd" clip-rule="evenodd" d="M-140.176 916.591H-51.346H-51.3147H37.5151V968.108H-51.3147H-51.346H-140.176V916.591Z" fill="#C7C0DD"/>
<path fill-rule="evenodd" clip-rule="evenodd" d="M39.0801 916.591H127.91H127.941H216.771V968.108H127.941H127.91H39.0801V916.591Z" fill="#C7C0DD"/>
<path fill-rule="evenodd" clip-rule="evenodd" d="M218.336 916.591H307.166H307.197H307.228H396.058V968.108H307.228H307.166H218.336V916.591Z" fill="#C7C0DD"/>
<path fill-rule="evenodd" clip-rule="evenodd" d="M397.623 916.591H486.453H486.484H575.314V968.108H486.484H486.453H397.623V916.591Z" fill="#C7C0DD"/>
<path fill-rule="evenodd" clip-rule="evenodd" d="M576.879 916.591H665.709H665.74H754.57V968.108H665.74H665.709H576.879V916.591Z" fill="#C7C0DD"/>
<path fill-rule="evenodd" clip-rule="evenodd" d="M756.135 916.591H844.965H844.996H845.027H933.826V968.108H845.027H844.965H756.135V916.591Z" fill="#C7C0DD"/>
<path fill-rule="evenodd" clip-rule="evenodd" d="M935.422 916.591H1024.25H1024.28H1113.11V968.108H1024.28H1024.25H935.422V916.591Z" fill="#C7C0DD"/>
<path fill-rule="evenodd" clip-rule="evenodd" d="M1114.68 916.591H1203.51H1203.54H1292.37V968.108H1203.54H1203.51H1114.68V916.591Z" fill="#C7C0DD"/>
<path fill-rule="evenodd" clip-rule="evenodd" d="M1293.93 916.591H1382.76H1382.79H1471.62V968.108H1382.79H1382.76H1293.93V916.591Z" fill="#C7C0DD"/>
<path fill-rule="evenodd" clip-rule="evenodd" d="M-50.5635 863.51H38.2663H38.2976H38.3289H127.159V915.027H38.3289H38.2663H-50.5635V863.51Z" fill="#C7C0DD"/>
<path fill-rule="evenodd" clip-rule="evenodd" d="M128.724 863.51H217.553H217.585H306.415V915.027H217.585H217.553H128.724V863.51Z" fill="#C7C0DD"/>
<path fill-rule="evenodd" clip-rule="evenodd" d="M307.979 863.51H396.809H396.841H485.67V915.027H396.841H396.809H307.979V863.51Z" fill="#C7C0DD"/>
<path fill-rule="evenodd" clip-rule="evenodd" d="M487.235 863.51H576.065H576.097H576.128H664.958V915.027H576.128H576.065H487.235V863.51Z" fill="#C7C0DD"/>
<path fill-rule="evenodd" clip-rule="evenodd" d="M666.522 863.51H755.352H755.384H844.213V915.027H755.384H755.352H666.522V863.51Z" fill="#C7C0DD"/>
<path fill-rule="evenodd" clip-rule="evenodd" d="M845.778 863.51H934.608H934.639H1023.47V915.027H934.639H934.608H845.778V863.51Z" fill="#C7C0DD"/>
<path fill-rule="evenodd" clip-rule="evenodd" d="M1025.03 863.51H1113.86H1113.9H1113.93H1202.72V915.027H1113.93H1113.86H1025.03V863.51Z" fill="#C7C0DD"/>
<path fill-rule="evenodd" clip-rule="evenodd" d="M1204.32 863.51H1293.15H1293.18H1382.01V915.027H1293.18H1293.15H1204.32V863.51Z" fill="#C7C0DD"/>
<path fill-rule="evenodd" clip-rule="evenodd" d="M1383.58 863.51H1472.41H1472.44H1561.27V915.027H1472.44H1472.41H1383.58V863.51Z" fill="#C7C0DD"/>
<path fill-rule="evenodd" clip-rule="evenodd" d="M-140.176 810.428H-51.346H-51.3147H37.5151V861.946H-51.3147H-51.346H-140.176V810.428Z" fill="#C7C0DD"/>
<path fill-rule="evenodd" clip-rule="evenodd" d="M39.0801 810.428H127.91H127.941H216.771V861.946H127.941H127.91H39.0801V810.428Z" fill="#C7C0DD"/>
<path fill-rule="evenodd" clip-rule="evenodd" d="M218.336 810.428H307.166H307.197H307.228H396.058V861.946H307.228H307.166H218.336V810.428Z" fill="#C7C0DD"/>
<path fill-rule="evenodd" clip-rule="evenodd" d="M397.623 810.428H486.453H486.484H575.314V861.946H486.484H486.453H397.623V810.428Z" fill="#C7C0DD"/>
<path fill-rule="evenodd" clip-rule="evenodd" d="M576.879 810.428H665.709H665.74H754.57V861.946H665.74H665.709H576.879V810.428Z" fill="#C7C0DD"/>
<path fill-rule="evenodd" clip-rule="evenodd" d="M756.135 810.428H844.965H844.996H845.027H933.826V861.946H845.027H844.965H756.135V810.428Z" fill="#C7C0DD"/>
<path fill-rule="evenodd" clip-rule="evenodd" d="M935.422 810.428H1024.25H1024.28H1113.11V861.946H1024.28H1024.25H935.422V810.428Z" fill="#C7C0DD"/>
<path fill-rule="evenodd" clip-rule="evenodd" d="M1114.68 810.428H1203.51H1203.54H1292.37V861.946H1203.54H1203.51H1114.68V810.428Z" fill="#C7C0DD"/>
<path fill-rule="evenodd" clip-rule="evenodd" d="M1293.93 810.428H1382.76H1382.79H1471.62V861.946H1382.79H1382.76H1293.93V810.428Z" fill="#C7C0DD"/>
<path fill-rule="evenodd" clip-rule="evenodd" d="M-50.5635 757.347H38.2663H38.2976H38.3289H127.159V808.864H38.3289H38.2663H-50.5635V757.347Z" fill="#C7C0DD"/>
<path fill-rule="evenodd" clip-rule="evenodd" d="M128.724 757.347H217.553H217.585H306.415V808.864H217.585H217.553H128.724V757.347Z" fill="#C7C0DD"/>
<path fill-rule="evenodd" clip-rule="evenodd" d="M307.979 757.347H396.809H396.841H485.67V808.864H396.841H396.809H307.979V757.347Z" fill="#C7C0DD"/>
<path fill-rule="evenodd" clip-rule="evenodd" d="M487.235 757.347H576.065H576.097H576.128H664.958V808.864H576.128H576.065H487.235V757.347Z" fill="#C7C0DD"/>
<path fill-rule="evenodd" clip-rule="evenodd" d="M666.522 757.347H755.352H755.384H844.213V808.864H755.384H755.352H666.522V757.347Z" fill="#C7C0DD"/>
<path fill-rule="evenodd" clip-rule="evenodd" d="M845.778 757.347H934.608H934.639H1023.47V808.864H934.639H934.608H845.778V757.347Z" fill="#C7C0DD"/>
<path fill-rule="evenodd" clip-rule="evenodd" d="M1025.03 757.347H1113.86H1113.9H1113.93H1202.72V808.864H1113.93H1113.86H1025.03V757.347Z" fill="#C7C0DD"/>
<path fill-rule="evenodd" clip-rule="evenodd" d="M1204.32 757.347H1293.15H1293.18H1382.01V808.864H1293.18H1293.15H1204.32V757.347Z" fill="#C7C0DD"/>
<path fill-rule="evenodd" clip-rule="evenodd" d="M1383.58 757.347H1472.41H1472.44H1561.27V808.864H1472.44H1472.41H1383.58V757.347Z" fill="#C7C0DD"/>
<path fill-rule="evenodd" clip-rule="evenodd" d="M-140.176 704.298H-51.346H-51.3147H37.5151V755.784H-51.3147H-51.346H-140.176V704.298Z" fill="#C7C0DD"/>
<path fill-rule="evenodd" clip-rule="evenodd" d="M39.0801 704.298H127.91H127.941H216.771V755.784H127.941H127.91H39.0801V704.298Z" fill="#C7C0DD"/>
<path fill-rule="evenodd" clip-rule="evenodd" d="M218.336 704.298H307.166H307.197H307.228H396.058V755.784H307.228H307.166H218.336V704.298Z" fill="#C7C0DD"/>
<path fill-rule="evenodd" clip-rule="evenodd" d="M397.623 704.298H486.453H486.484H575.314V755.784H486.484H486.453H397.623V704.298Z" fill="#C7C0DD"/>
<path fill-rule="evenodd" clip-rule="evenodd" d="M576.879 704.298H665.709H665.74H754.57V755.784H665.74H665.709H576.879V704.298Z" fill="#C7C0DD"/>
<path fill-rule="evenodd" clip-rule="evenodd" d="M756.135 704.298H844.965H844.996H845.027H933.826V755.784H845.027H844.965H756.135V704.298Z" fill="#C7C0DD"/>
<path fill-rule="evenodd" clip-rule="evenodd" d="M935.422 704.298H1024.25H1024.28H1113.11V755.784H1024.28H1024.25H935.422V704.298Z" fill="#C7C0DD"/>
<path fill-rule="evenodd" clip-rule="evenodd" d="M1114.68 704.298H1203.51H1203.54H1292.37V755.784H1203.54H1203.51H1114.68V704.298Z" fill="#C7C0DD"/>
<path fill-rule="evenodd" clip-rule="evenodd" d="M1293.93 704.298H1382.76H1382.79H1471.62V755.784H1382.79H1382.76H1293.93V704.298Z" fill="#C7C0DD"/>
<path fill-rule="evenodd" clip-rule="evenodd" d="M-50.5635 651.217H38.2663H38.2976H38.3289H127.159V702.702H38.3289H38.2663H-50.5635V651.217Z" fill="#C7C0DD"/>
<path fill-rule="evenodd" clip-rule="evenodd" d="M128.724 651.217H217.553H217.585H306.415V702.702H217.585H217.553H128.724V651.217Z" fill="#C7C0DD"/>
<path fill-rule="evenodd" clip-rule="evenodd" d="M307.979 651.217H396.809H396.841H485.67V702.702H396.841H396.809H307.979V651.217Z" fill="#C7C0DD"/>
<path fill-rule="evenodd" clip-rule="evenodd" d="M487.235 651.217H576.065H576.097H576.128H664.958V702.702H576.128H576.065H487.235V651.217Z" fill="#C7C0DD"/>
<path fill-rule="evenodd" clip-rule="evenodd" d="M666.522 651.217H755.352H755.384H844.213V702.702H755.384H755.352H666.522V651.217Z" fill="#C7C0DD"/>
<path fill-rule="evenodd" clip-rule="evenodd" d="M845.778 651.217H934.608H934.639H1023.47V702.702H934.639H934.608H845.778V651.217Z" fill="#C7C0DD"/>
<path fill-rule="evenodd" clip-rule="evenodd" d="M1025.03 651.217H1113.86H1113.9H1113.93H1202.72V702.702H1113.93H1113.86H1025.03V651.217Z" fill="#C7C0DD"/>
<path fill-rule="evenodd" clip-rule="evenodd" d="M1204.32 651.217H1293.15H1293.18H1382.01V702.702H1293.18H1293.15H1204.32V651.217Z" fill="#C7C0DD"/>
<path fill-rule="evenodd" clip-rule="evenodd" d="M1383.58 651.217H1472.41H1472.44H1561.27V702.702H1472.44H1472.41H1383.58V651.217Z" fill="#C7C0DD"/>
<path fill-rule="evenodd" clip-rule="evenodd" d="M-140.176 598.104H-51.346H-51.3147H37.5151V649.621H-51.3147H-51.346H-140.176V598.104Z" fill="#C7C0DD"/>
<path fill-rule="evenodd" clip-rule="evenodd" d="M39.0801 598.104H127.91H127.941H216.771V649.621H127.941H127.91H39.0801V598.104Z" fill="#C7C0DD"/>
<path fill-rule="evenodd" clip-rule="evenodd" d="M218.336 598.104H307.166H307.197H307.228H396.058V649.621H307.228H307.166H218.336V598.104Z" fill="#C7C0DD"/>
<path fill-rule="evenodd" clip-rule="evenodd" d="M397.623 598.104H486.453H486.484H575.314V649.621H486.484H486.453H397.623V598.104Z" fill="#C7C0DD"/>
<path fill-rule="evenodd" clip-rule="evenodd" d="M576.879 598.104H665.709H665.74H754.57V649.621H665.74H665.709H576.879V598.104Z" fill="#C7C0DD"/>
<path fill-rule="evenodd" clip-rule="evenodd" d="M756.135 598.104H844.965H844.996H845.027H933.826V649.621H845.027H844.965H756.135V598.104Z" fill="#C7C0DD"/>
<path fill-rule="evenodd" clip-rule="evenodd" d="M935.422 598.104H1024.25H1024.28H1113.11V649.621H1024.28H1024.25H935.422V598.104Z" fill="#C7C0DD"/>
<path fill-rule="evenodd" clip-rule="evenodd" d="M1114.68 598.104H1203.51H1203.54H1292.37V649.621H1203.54H1203.51H1114.68V598.104Z" fill="#C7C0DD"/>
<path fill-rule="evenodd" clip-rule="evenodd" d="M1293.93 598.104H1382.76H1382.79H1471.62V649.621H1382.79H1382.76H1293.93V598.104Z" fill="#C7C0DD"/>
<path fill-rule="evenodd" clip-rule="evenodd" d="M-50.5635 545.054H38.2663H38.2976H38.3289H127.159V596.54H38.3289H38.2663H-50.5635V545.054Z" fill="#C7C0DD"/>
<path fill-rule="evenodd" clip-rule="evenodd" d="M128.724 545.054H217.553H217.585H306.415V596.54H217.585H217.553H128.724V545.054Z" fill="#C7C0DD"/>
<path fill-rule="evenodd" clip-rule="evenodd" d="M307.979 545.054H396.809H396.841H485.67V596.54H396.841H396.809H307.979V545.054Z" fill="#C7C0DD"/>
<path fill-rule="evenodd" clip-rule="evenodd" d="M487.235 545.054H576.065H576.097H576.128H664.958V596.54H576.128H576.065H487.235V545.054Z" fill="#C7C0DD"/>
<path fill-rule="evenodd" clip-rule="evenodd" d="M666.522 545.054H755.352H755.384H844.213V596.54H755.384H755.352H666.522V545.054Z" fill="#C7C0DD"/>
<path fill-rule="evenodd" clip-rule="evenodd" d="M845.778 545.054H934.608H934.639H1023.47V596.54H934.639H934.608H845.778V545.054Z" fill="#C7C0DD"/>
<path fill-rule="evenodd" clip-rule="evenodd" d="M1025.03 545.054H1113.86H1113.9H1113.93H1202.72V596.54H1113.93H1113.86H1025.03V545.054Z" fill="#C7C0DD"/>
<path fill-rule="evenodd" clip-rule="evenodd" d="M1204.32 545.054H1293.15H1293.18H1382.01V596.54H1293.18H1293.15H1204.32V545.054Z" fill="#C7C0DD"/>
<path fill-rule="evenodd" clip-rule="evenodd" d="M1383.58 545.054H1472.41H1472.44H1561.27V596.54H1472.44H1472.41H1383.58V545.054Z" fill="#C7C0DD"/>
<path fill-rule="evenodd" clip-rule="evenodd" d="M-140.176 491.942H-51.346H-51.3147H37.5151V543.459H-51.3147H-51.346H-140.176V491.942Z" fill="#C7C0DD"/>
<path fill-rule="evenodd" clip-rule="evenodd" d="M39.0801 491.942H127.91H127.941H216.771V543.459H127.941H127.91H39.0801V491.942Z" fill="#C7C0DD"/>
<path fill-rule="evenodd" clip-rule="evenodd" d="M218.336 491.942H307.166H307.197H307.228H396.058V543.459H307.228H307.166H218.336V491.942Z" fill="#C7C0DD"/>
<path fill-rule="evenodd" clip-rule="evenodd" d="M397.623 491.942H486.453H486.484H575.314V543.459H486.484H486.453H397.623V491.942Z" fill="#C7C0DD"/>
<path fill-rule="evenodd" clip-rule="evenodd" d="M576.879 491.942H665.709H665.74H754.57V543.459H665.74H665.709H576.879V491.942Z" fill="#C7C0DD"/>
<path fill-rule="evenodd" clip-rule="evenodd" d="M756.135 491.942H844.965H844.996H845.027H933.826V543.459H845.027H844.965H756.135V491.942Z" fill="#C7C0DD"/>
<path fill-rule="evenodd" clip-rule="evenodd" d="M935.422 491.942H1024.25H1024.28H1113.11V543.459H1024.28H1024.25H935.422V491.942Z" fill="#C7C0DD"/>
<path fill-rule="evenodd" clip-rule="evenodd" d="M1114.68 491.942H1203.51H1203.54H1292.37V543.459H1203.54H1203.51H1114.68V491.942Z" fill="#C7C0DD"/>
<path fill-rule="evenodd" clip-rule="evenodd" d="M1293.93 491.942H1382.76H1382.79H1471.62V543.459H1382.79H1382.76H1293.93V491.942Z" fill="#C7C0DD"/>
<path fill-rule="evenodd" clip-rule="evenodd" d="M-50.5635 438.892H38.2663H38.2976H38.3289H127.159V490.378H38.3289H38.2663H-50.5635V438.892Z" fill="#C7C0DD"/>
<path fill-rule="evenodd" clip-rule="evenodd" d="M128.724 438.892H217.553H217.585H306.415V490.378H217.585H217.553H128.724V438.892Z" fill="#C7C0DD"/>
<path fill-rule="evenodd" clip-rule="evenodd" d="M307.979 438.892H396.809H396.841H485.67V490.378H396.841H396.809H307.979V438.892Z" fill="#C7C0DD"/>
<path fill-rule="evenodd" clip-rule="evenodd" d="M487.235 438.892H576.065H576.097H576.128H664.958V490.378H576.128H576.065H487.235V438.892Z" fill="#C7C0DD"/>
<path fill-rule="evenodd" clip-rule="evenodd" d="M666.522 438.892H755.352H755.384H844.213V490.378H755.384H755.352H666.522V438.892Z" fill="#C7C0DD"/>
<path fill-rule="evenodd" clip-rule="evenodd" d="M845.778 438.892H934.608H934.639H1023.47V490.378H934.639H934.608H845.778V438.892Z" fill="#C7C0DD"/>
<path fill-rule="evenodd" clip-rule="evenodd" d="M1025.03 438.892H1113.86H1113.9H1113.93H1202.72V490.378H1113.93H1113.86H1025.03V438.892Z" fill="#C7C0DD"/>
<path fill-rule="evenodd" clip-rule="evenodd" d="M1204.32 438.892H1293.15H1293.18H1382.01V490.378H1293.18H1293.15H1204.32V438.892Z" fill="#C7C0DD"/>
<path fill-rule="evenodd" clip-rule="evenodd" d="M1383.58 438.892H1472.41H1472.44H1561.27V490.378H1472.44H1472.41H1383.58V438.892Z" fill="#C7C0DD"/>
<path fill-rule="evenodd" clip-rule="evenodd" d="M-140.176 385.811H-51.346H-51.3147H37.5151V437.297H-51.3147H-51.346H-140.176V385.811Z" fill="#C7C0DD"/>
<path fill-rule="evenodd" clip-rule="evenodd" d="M39.0801 385.811H127.91H127.941H216.771V437.297H127.941H127.91H39.0801V385.811Z" fill="#C7C0DD"/>
<path fill-rule="evenodd" clip-rule="evenodd" d="M218.336 385.811H307.166H307.197H307.228H396.058V437.297H307.228H307.166H218.336V385.811Z" fill="#C7C0DD"/>
<path fill-rule="evenodd" clip-rule="evenodd" d="M397.623 385.811H486.453H486.484H575.314V437.297H486.484H486.453H397.623V385.811Z" fill="#C7C0DD"/>
<path fill-rule="evenodd" clip-rule="evenodd" d="M576.879 385.811H665.709H665.74H754.57V437.297H665.74H665.709H576.879V385.811Z" fill="#C7C0DD"/>
<path fill-rule="evenodd" clip-rule="evenodd" d="M756.135 385.811H844.965H844.996H845.027H933.826V437.297H845.027H844.965H756.135V385.811Z" fill="#C7C0DD"/>
<path fill-rule="evenodd" clip-rule="evenodd" d="M935.422 385.811H1024.25H1024.28H1113.11V437.297H1024.28H1024.25H935.422V385.811Z" fill="#C7C0DD"/>
<path fill-rule="evenodd" clip-rule="evenodd" d="M1114.68 385.811H1203.51H1203.54H1292.37V437.297H1203.54H1203.51H1114.68V385.811Z" fill="#C7C0DD"/>
<path fill-rule="evenodd" clip-rule="evenodd" d="M1293.93 385.811H1382.76H1382.79H1471.62V437.297H1382.79H1382.76H1293.93V385.811Z" fill="#C7C0DD"/>
<path fill-rule="evenodd" clip-rule="evenodd" d="M-50.5635 332.73H38.2663H38.2976H38.3289H127.159V384.247H38.3289H38.2663H-50.5635V332.73Z" fill="#C7C0DD"/>
<path fill-rule="evenodd" clip-rule="evenodd" d="M128.724 332.73H217.553H217.585H306.415V384.247H217.585H217.553H128.724V332.73Z" fill="#C7C0DD"/>
<path fill-rule="evenodd" clip-rule="evenodd" d="M307.979 332.73H396.809H396.841H485.67V384.247H396.841H396.809H307.979V332.73Z" fill="#C7C0DD"/>
<path fill-rule="evenodd" clip-rule="evenodd" d="M487.235 332.73H576.065H576.097H576.128H664.958V384.247H576.128H576.065H487.235V332.73Z" fill="#C7C0DD"/>
<path fill-rule="evenodd" clip-rule="evenodd" d="M666.522 332.73H755.352H755.384H844.213V384.247H755.384H755.352H666.522V332.73Z" fill="#C7C0DD"/>
<path fill-rule="evenodd" clip-rule="evenodd" d="M845.778 332.73H934.608H934.639H1023.47V384.247H934.639H934.608H845.778V332.73Z" fill="#C7C0DD"/>
<path fill-rule="evenodd" clip-rule="evenodd" d="M1025.03 332.73H1113.86H1113.9H1113.93H1202.72V384.247H1113.93H1113.86H1025.03V332.73Z" fill="#C7C0DD"/>
<path fill-rule="evenodd" clip-rule="evenodd" d="M1204.32 332.73H1293.15H1293.18H1382.01V384.247H1293.18H1293.15H1204.32V332.73Z" fill="#C7C0DD"/>
<path fill-rule="evenodd" clip-rule="evenodd" d="M1383.58 332.73H1472.41H1472.44H1561.27V384.247H1472.44H1472.41H1383.58V332.73Z" fill="#C7C0DD"/>
<path fill-rule="evenodd" clip-rule="evenodd" d="M-140.176 279.649H-51.346H-51.3147H37.5151V331.166H-51.3147H-51.346H-140.176V279.649Z" fill="#C7C0DD"/>
<path fill-rule="evenodd" clip-rule="evenodd" d="M39.0801 279.649H127.91H127.941H216.771V331.166H127.941H127.91H39.0801V279.649Z" fill="#C7C0DD"/>
<path fill-rule="evenodd" clip-rule="evenodd" d="M218.336 279.649H307.166H307.197H307.228H396.058V331.166H307.228H307.166H218.336V279.649Z" fill="#C7C0DD"/>
<path fill-rule="evenodd" clip-rule="evenodd" d="M397.623 279.649H486.453H486.484H575.314V331.166H486.484H486.453H397.623V279.649Z" fill="#C7C0DD"/>
<path fill-rule="evenodd" clip-rule="evenodd" d="M576.879 279.649H665.709H665.74H754.57V331.166H665.74H665.709H576.879V279.649Z" fill="#C7C0DD"/>
<path fill-rule="evenodd" clip-rule="evenodd" d="M756.135 279.649H844.965H844.996H845.027H933.826V331.166H845.027H844.965H756.135V279.649Z" fill="#C7C0DD"/>
<path fill-rule="evenodd" clip-rule="evenodd" d="M935.422 279.649H1024.25H1024.28H1113.11V331.166H1024.28H1024.25H935.422V279.649Z" fill="#C7C0DD"/>
<path fill-rule="evenodd" clip-rule="evenodd" d="M1114.68 279.649H1203.51H1203.54H1292.37V331.166H1203.54H1203.51H1114.68V279.649Z" fill="#C7C0DD"/>
<path fill-rule="evenodd" clip-rule="evenodd" d="M1293.93 279.649H1382.76H1382.79H1471.62V331.166H1382.79H1382.76H1293.93V279.649Z" fill="#C7C0DD"/>
<path fill-rule="evenodd" clip-rule="evenodd" d="M-50.5635 226.568H38.2663H38.2976H38.3289H127.159V278.085H38.3289H38.2663H-50.5635V226.568Z" fill="#C7C0DD"/>
<path fill-rule="evenodd" clip-rule="evenodd" d="M128.724 226.568H217.553H217.585H306.415V278.085H217.585H217.553H128.724V226.568Z" fill="#C7C0DD"/>
<path fill-rule="evenodd" clip-rule="evenodd" d="M307.979 226.568H396.809H396.841H485.67V278.085H396.841H396.809H307.979V226.568Z" fill="#C7C0DD"/>
<path fill-rule="evenodd" clip-rule="evenodd" d="M487.235 226.568H576.065H576.097H576.128H664.958V278.085H576.128H576.065H487.235V226.568Z" fill="#C7C0DD"/>
<path fill-rule="evenodd" clip-rule="evenodd" d="M666.522 226.568H755.352H755.384H844.213V278.085H755.384H755.352H666.522V226.568Z" fill="#C7C0DD"/>
<path fill-rule="evenodd" clip-rule="evenodd" d="M845.778 226.568H934.608H934.639H1023.47V278.085H934.639H934.608H845.778V226.568Z" fill="#C7C0DD"/>
<path fill-rule="evenodd" clip-rule="evenodd" d="M1025.03 226.568H1113.86H1113.9H1113.93H1202.72V278.085H1113.93H1113.86H1025.03V226.568Z" fill="#C7C0DD"/>
<path fill-rule="evenodd" clip-rule="evenodd" d="M1204.32 226.568H1293.15H1293.18H1382.01V278.085H1293.18H1293.15H1204.32V226.568Z" fill="#C7C0DD"/>
<path fill-rule="evenodd" clip-rule="evenodd" d="M1383.58 226.568H1472.41H1472.44H1561.27V278.085H1472.44H1472.41H1383.58V226.568Z" fill="#C7C0DD"/>
<path fill-rule="evenodd" clip-rule="evenodd" d="M-140.176 173.487H-51.346H-51.3147H37.5151V225.004H-51.3147H-51.346H-140.176V173.487Z" fill="#C7C0DD"/>
<path fill-rule="evenodd" clip-rule="evenodd" d="M39.0801 173.487H127.91H127.941H216.771V225.004H127.941H127.91H39.0801V173.487Z" fill="#C7C0DD"/>
<path fill-rule="evenodd" clip-rule="evenodd" d="M218.336 173.487H307.166H307.197H307.228H396.058V225.004H307.228H307.166H218.336V173.487Z" fill="#C7C0DD"/>
<path fill-rule="evenodd" clip-rule="evenodd" d="M397.623 173.487H486.453H486.484H575.314V225.004H486.484H486.453H397.623V173.487Z" fill="#C7C0DD"/>
<path fill-rule="evenodd" clip-rule="evenodd" d="M576.879 173.487H665.709H665.74H754.57V225.004H665.74H665.709H576.879V173.487Z" fill="#C7C0DD"/>
<path fill-rule="evenodd" clip-rule="evenodd" d="M756.135 173.487H844.965H844.996H845.027H933.826V225.004H845.027H844.965H756.135V173.487Z" fill="#C7C0DD"/>
<path fill-rule="evenodd" clip-rule="evenodd" d="M935.422 173.487H1024.25H1024.28H1113.11V225.004H1024.28H1024.25H935.422V173.487Z" fill="#C7C0DD"/>
<path fill-rule="evenodd" clip-rule="evenodd" d="M1114.68 173.487H1203.51H1203.54H1292.37V225.004H1203.54H1203.51H1114.68V173.487Z" fill="#C7C0DD"/>
<path fill-rule="evenodd" clip-rule="evenodd" d="M1293.93 173.487H1382.76H1382.79H1471.62V225.004H1382.79H1382.76H1293.93V173.487Z" fill="#C7C0DD"/>
<path fill-rule="evenodd" clip-rule="evenodd" d="M-50.5635 120.406H38.2663H38.2976H38.3289H127.159V171.923H38.3289H38.2663H-50.5635V120.406Z" fill="#C7C0DD"/>
<path fill-rule="evenodd" clip-rule="evenodd" d="M128.724 120.406H217.553H217.585H306.415V171.923H217.585H217.553H128.724V120.406Z" fill="#C7C0DD"/>
<path fill-rule="evenodd" clip-rule="evenodd" d="M307.979 120.406H396.809H396.841H485.67V171.923H396.841H396.809H307.979V120.406Z" fill="#C7C0DD"/>
<path fill-rule="evenodd" clip-rule="evenodd" d="M487.235 120.406H576.065H576.097H576.128H664.958V171.923H576.128H576.065H487.235V120.406Z" fill="#C7C0DD"/>
<path fill-rule="evenodd" clip-rule="evenodd" d="M666.522 120.406H755.352H755.384H844.213V171.923H755.384H755.352H666.522V120.406Z" fill="#C7C0DD"/>
<path fill-rule="evenodd" clip-rule="evenodd" d="M845.778 120.406H934.608H934.639H1023.47V171.923H934.639H934.608H845.778V120.406Z" fill="#C7C0DD"/>
<path fill-rule="evenodd" clip-rule="evenodd" d="M1025.03 120.406H1113.86H1113.9H1113.93H1202.72V171.923H1113.93H1113.86H1025.03V120.406Z" fill="#C7C0DD"/>
<path fill-rule="evenodd" clip-rule="evenodd" d="M1204.32 120.406H1293.15H1293.18H1382.01V171.923H1293.18H1293.15H1204.32V120.406Z" fill="#C7C0DD"/>
<path fill-rule="evenodd" clip-rule="evenodd" d="M1383.58 120.406H1472.41H1472.44H1561.27V171.923H1472.44H1472.41H1383.58V120.406Z" fill="#C7C0DD"/>
<path fill-rule="evenodd" clip-rule="evenodd" d="M-140.176 67.3245H-51.346H-51.3147H37.5151V118.842H-51.3147H-51.346H-140.176V67.3245Z" fill="#C7C0DD"/>
<path fill-rule="evenodd" clip-rule="evenodd" d="M39.0801 67.3245H127.91H127.941H216.771V118.842H127.941H127.91H39.0801V67.3245Z" fill="#C7C0DD"/>
<path fill-rule="evenodd" clip-rule="evenodd" d="M218.336 67.3245H307.166H307.197H307.228H396.058V118.842H307.228H307.166H218.336V67.3245Z" fill="#C7C0DD"/>
<path fill-rule="evenodd" clip-rule="evenodd" d="M397.623 67.3245H486.453H486.484H575.314V118.842H486.484H486.453H397.623V67.3245Z" fill="#C7C0DD"/>
<path fill-rule="evenodd" clip-rule="evenodd" d="M576.879 67.3245H665.709H665.74H754.57V118.842H665.74H665.709H576.879V67.3245Z" fill="#C7C0DD"/>
<path fill-rule="evenodd" clip-rule="evenodd" d="M756.135 67.3245H844.965H844.996H845.027H933.826V118.842H845.027H844.965H756.135V67.3245Z" fill="#C7C0DD"/>
<path fill-rule="evenodd" clip-rule="evenodd" d="M935.422 67.3245H1024.25H1024.28H1113.11V118.842H1024.28H1024.25H935.422V67.3245Z" fill="#C7C0DD"/>
<path fill-rule="evenodd" clip-rule="evenodd" d="M1114.68 67.3245H1203.51H1203.54H1292.37V118.842H1203.54H1203.51H1114.68V67.3245Z" fill="#C7C0DD"/>
<path fill-rule="evenodd" clip-rule="evenodd" d="M1293.93 67.3245H1382.76H1382.79H1471.62V118.842H1382.79H1382.76H1293.93V67.3245Z" fill="#C7C0DD"/>
<path fill-rule="evenodd" clip-rule="evenodd" d="M-50.5635 14.2434H38.2663H38.2976H38.3289H127.159V65.7605H38.3289H38.2663H-50.5635V14.2434Z" fill="#C7C0DD"/>
<path fill-rule="evenodd" clip-rule="evenodd" d="M128.724 14.2434H217.553H217.585H306.415V65.7605H217.585H217.553H128.724V14.2434Z" fill="#C7C0DD"/>
<path fill-rule="evenodd" clip-rule="evenodd" d="M307.979 14.2434H396.809H396.841H485.67V65.7605H396.841H396.809H307.979V14.2434Z" fill="#C7C0DD"/>
<path fill-rule="evenodd" clip-rule="evenodd" d="M487.235 14.2434H576.065H576.097H576.128H664.958V65.7605H576.128H576.065H487.235V14.2434Z" fill="#C7C0DD"/>
<path fill-rule="evenodd" clip-rule="evenodd" d="M666.522 14.2434H755.352H755.384H844.213V65.7605H755.384H755.352H666.522V14.2434Z" fill="#C7C0DD"/>
<path fill-rule="evenodd" clip-rule="evenodd" d="M845.778 14.2434H934.608H934.639H1023.47V65.7605H934.639H934.608H845.778V14.2434Z" fill="#C7C0DD"/>
<path fill-rule="evenodd" clip-rule="evenodd" d="M1025.03 14.2434H1113.86H1113.9H1113.93H1202.72V65.7605H1113.93H1113.86H1025.03V14.2434Z" fill="#C7C0DD"/>
<path fill-rule="evenodd" clip-rule="evenodd" d="M1204.32 14.2434H1293.15H1293.18H1382.01V65.7605H1293.18H1293.15H1204.32V14.2434Z" fill="#C7C0DD"/>
<path fill-rule="evenodd" clip-rule="evenodd" d="M1383.58 14.2434H1472.41H1472.44H1561.27V65.7605H1472.44H1472.41H1383.58V14.2434Z" fill="#C7C0DD"/>
<path fill-rule="evenodd" clip-rule="evenodd" d="M-140.176 -38.8379H-51.346H-51.3147H37.5151V12.6792H-51.3147H-51.346H-140.176V-38.8379Z" fill="#C7C0DD"/>
<path fill-rule="evenodd" clip-rule="evenodd" d="M39.0801 -38.8379H127.91H127.941H216.771V12.6792H127.941H127.91H39.0801V-38.8379Z" fill="#C7C0DD"/>
<path fill-rule="evenodd" clip-rule="evenodd" d="M218.336 -38.8379H307.166H307.197H307.228H396.058V12.6792H307.228H307.166H218.336V-38.8379Z" fill="#C7C0DD"/>
<path fill-rule="evenodd" clip-rule="evenodd" d="M397.623 -38.8379H486.453H486.484H575.314V12.6792H486.484H486.453H397.623V-38.8379Z" fill="#C7C0DD"/>
<path fill-rule="evenodd" clip-rule="evenodd" d="M576.879 -38.8379H665.709H665.74H754.57V12.6792H665.74H665.709H576.879V-38.8379Z" fill="#C7C0DD"/>
<path fill-rule="evenodd" clip-rule="evenodd" d="M756.135 -38.8379H844.965H844.996H845.027H933.826V12.6792H845.027H844.965H756.135V-38.8379Z" fill="#C7C0DD"/>
<path fill-rule="evenodd" clip-rule="evenodd" d="M935.422 -38.8379H1024.25H1024.28H1113.11V12.6792H1024.28H1024.25H935.422V-38.8379Z" fill="#C7C0DD"/>
<path fill-rule="evenodd" clip-rule="evenodd" d="M1114.68 -38.8379H1203.51H1203.54H1292.37V12.6792H1203.54H1203.51H1114.68V-38.8379Z" fill="#C7C0DD"/>
<path fill-rule="evenodd" clip-rule="evenodd" d="M1293.93 -38.8379H1382.76H1382.79H1471.62V12.6792H1382.79H1382.76H1293.93V-38.8379Z" fill="#C7C0DD"/>
<path fill-rule="evenodd" clip-rule="evenodd" d="M1781.65 742.458C1771.86 796.697 1730.79 844.492 1658.46 844.492C1597.61 844.492 1547.84 894.226 1547.84 955.033C1547.84 1065.95 1457.01 1156.75 1345.99 1156.75H1334.84H224.533H-11.0629C-155.263 1156.75 -273.264 1038.83 -273.264 894.726C-273.264 838.048 -255.016 785.468 -224.123 742.458H1781.65Z" fill="#A7A0CB"/>
<path fill-rule="evenodd" clip-rule="evenodd" d="M1759.96 795.196H-253.482C-239.178 760.632 -217.644 729.728 -190.788 704.391H1783.47" fill="#C7C0DD"/>
<path fill-rule="evenodd" clip-rule="evenodd" d="M1114.15 395.57C1113.58 394.976 1113.61 394.037 1114.21 393.474C1114.8 392.911 1115.74 392.942 1116.34 393.537C1116.74 393.943 1256.25 537.359 1096.46 697.041C1095.87 697.635 1094.93 697.635 1094.33 697.041C1093.74 696.446 1093.74 695.508 1094.33 694.914C1252.02 537.265 1114.52 395.977 1114.15 395.57Z" fill="#350A3D"/>
<path fill-rule="evenodd" clip-rule="evenodd" d="M1101.34 177.052C1026.94 239.079 1063.19 352.53 1123.57 412.367C1193.43 481.588 1218.81 592.317 1094.99 676.928C971.167 761.507 1163.26 832.261 1237.84 738.454C1312.46 644.648 1339.88 416.84 1334.69 360.099C1329.49 303.358 1331.53 278.585 1288.64 253.968C1245.79 229.32 1101.34 177.052 1101.34 177.052Z" fill="#350A3D"/>
<path fill-rule="evenodd" clip-rule="evenodd" d="M915.578 576.991C915.578 576.991 904.873 562.727 902.682 560.538C900.491 558.348 886.218 557.973 877.673 557.378C869.128 556.784 867.563 564.51 867.344 567.701C867.157 570.86 866.75 574.832 866.75 574.832C866.75 574.832 817.64 578.899 814.071 579.681C810.503 580.463 805.746 594.163 804.744 596.947C803.742 599.731 805.652 606.08 809.314 606.362C812.976 606.643 817.64 604.485 819.142 602.108C820.644 599.731 821.928 603.015 821.928 603.015C821.928 603.015 818.172 609.365 817.953 613.932C817.765 618.498 818.735 620.876 822.429 622.471C826.091 624.066 831.85 625.161 831.85 625.161C831.85 625.161 832.038 632.699 833.352 635.483C834.636 638.267 835.042 639.455 840.708 641.145C846.373 642.834 866.311 647.494 866.311 647.494L915.578 576.991Z" fill="#CB6459"/>
<path fill-rule="evenodd" clip-rule="evenodd" d="M831.662 626.255C831.005 626.161 830.567 625.536 830.661 624.879C830.755 624.222 831.381 623.784 832.038 623.878L841.616 625.411C842.273 625.505 842.711 626.13 842.617 626.787C842.523 627.444 841.897 627.882 841.24 627.788L831.662 626.255Z" fill="#B24949"/>
<path fill-rule="evenodd" clip-rule="evenodd" d="M1349.43 1058.13C1349.43 1058.13 1336.72 1156.75 1254.18 1156.75C1171.64 1156.75 1195.43 1156.75 1161.32 1156.75C1127.2 1156.75 1048.6 1069.23 988.288 993.1C927.973 916.966 899.333 863.009 899.333 863.009C884.747 887.814 728.81 1012.21 692.314 1044.65C685.178 1051 654.159 1087.09 648.588 1087.09C648.588 1087.09 607.303 1089.85 576.347 1068.45C576.347 1068.45 586.207 1026.6 588.241 1024.04C681.077 908.208 784.493 777.835 835.794 726.005C887.063 674.175 939.648 702.765 1058.71 786.844C1177.78 870.923 1349.43 1058.13 1349.43 1058.13Z" fill="#350A3D"/>
<path fill-rule="evenodd" clip-rule="evenodd" d="M795.104 549.746L797.983 546.65C800.237 544.241 804.055 544.085 806.497 546.337L895.671 629.133C898.081 631.385 898.238 635.202 895.984 637.641L893.104 640.738C890.851 643.146 887.032 643.303 884.591 641.051L795.448 558.254C793.007 556.002 792.881 552.186 795.104 549.746Z" fill="#350A3D"/>
<path fill-rule="evenodd" clip-rule="evenodd" d="M985.409 624.253C985.409 624.253 974.547 619.28 970.76 616.903C967.004 614.526 938.02 577.835 934.264 576.24C930.477 574.644 904.31 571.86 900.523 571.86C896.735 571.86 891.195 575.426 889.411 579.399C887.627 583.371 884.653 594.663 884.653 594.663C884.653 594.663 846.78 595.633 835.982 595.883L824.87 585.561C824.87 585.561 820.77 586.968 819.174 589.252C817.577 591.535 817.483 598.385 817.671 601.857C817.859 605.329 824.307 613.869 826.091 615.745C827.875 617.622 832.351 618.717 835.606 619.218C835.606 619.218 835.481 627.444 842.242 630.228C848.971 633.012 857.203 636.671 857.203 636.671C857.203 636.671 857.61 643.615 862.556 646.775C867.501 649.934 880.804 660.068 880.804 660.068C880.804 660.068 885.561 661.945 888.754 661.757C888.754 661.757 892.51 669.765 898.676 672.361C904.842 674.926 927.065 684.654 930.226 685.467C933.388 686.249 945.751 684.028 957.833 691.004C969.915 697.979 971.48 698.354 971.48 698.354L994.11 636.077L985.409 624.253Z" fill="#E6AD83"/>
<path fill-rule="evenodd" clip-rule="evenodd" d="M588.867 1147.87C588.867 1147.87 405.166 1152.25 398.061 1139.14C398.061 1139.14 398.061 1128.63 398.061 1121.63C398.061 1114.62 406.45 1104.58 429.299 1098.01C452.148 1091.44 500.851 1078.74 515.812 1074.14C530.774 1069.55 573.655 1022.75 579.759 1017.06C585.862 1011.37 614.251 1029.76 620.355 1032.82C626.458 1035.89 622.389 1043.33 619.322 1052.06C616.286 1060.79 588.867 1147.87 588.867 1147.87Z" fill="#B02539"/>
<path fill-rule="evenodd" clip-rule="evenodd" d="M398.061 1156.75H691.907C695.381 1156.75 698.23 1155.13 698.23 1153.16V1142.74C698.23 1140.77 695.381 1139.14 691.907 1139.14H398.061C394.587 1139.14 391.739 1140.77 391.739 1142.74V1153.16C391.739 1155.13 394.587 1156.75 398.061 1156.75Z" fill="#ECD8DA"/>
<path fill-rule="evenodd" clip-rule="evenodd" d="M398.061 1156.75H497.909C501.383 1156.75 504.231 1155.13 504.231 1153.16V1142.74C504.231 1140.77 501.383 1139.14 497.909 1139.14H398.061C394.587 1139.14 391.739 1140.77 391.739 1142.74V1153.16C391.739 1155.13 394.587 1156.75 398.061 1156.75Z" fill="#DF9AA3"/>
<path fill-rule="evenodd" clip-rule="evenodd" d="M527.988 1079.84C528.99 1082.9 538.13 1098.23 531.807 1101.92C525.453 1105.64 505.171 1118.97 493.746 1118.97C482.321 1118.97 458.22 1118.97 428.047 1118.97C397.842 1118.97 404.822 1109.9 404.822 1109.9C400.096 1114.03 398.093 1118.19 398.093 1121.6C398.093 1128.6 398.093 1139.11 398.093 1139.11H691.938C691.938 1139.11 704.365 1126.63 704.365 1097.32C704.365 1068.01 706.023 1051.15 701.047 1046.46C696.101 1041.77 692.69 1044.18 692.69 1044.18C669.841 1061.26 642.203 1049 627.742 1042.21C626.208 1041.49 624.737 1040.77 623.36 1040.05C611.622 1034.01 604.423 1028.6 594 1033.67C582.325 1039.36 541.228 1064.51 534.624 1068.45C527.988 1072.39 526.955 1076.77 527.988 1079.84Z" fill="#B02539"/>
<path fill-rule="evenodd" clip-rule="evenodd" d="M398.061 1125.94V1139.11H691.907C691.907 1139.11 704.333 1126.63 704.333 1097.32C704.333 1068.01 705.992 1051.15 701.015 1046.46C701.673 1055.85 695.913 1066.39 685.741 1066.39C675.6 1066.39 648.681 1066.39 627.178 1066.39C605.706 1066.39 601.356 1076.3 601.356 1076.3C601.356 1076.3 590.495 1094.82 582.701 1107.93C574.876 1121.03 561.886 1129.98 552.34 1129.98C542.793 1129.98 426.67 1129.98 411.051 1129.98C404.384 1129.95 400.409 1128.07 398.061 1125.94Z" fill="#C73048"/>
<path fill-rule="evenodd" clip-rule="evenodd" d="M590.776 1040.55C591.966 1041.33 593.5 1041.15 594.157 1040.18C594.814 1039.21 594.407 1037.77 593.187 1037.02L574.719 1025.13L573.843 1023L569.868 1027.13L570.713 1027.69L578.256 1046.46C578.757 1047.68 580.197 1048.46 581.48 1048.21C582.764 1047.96 583.421 1046.78 582.92 1045.56L577.505 1032.07L590.776 1040.55ZM537.41 1058.79C538.63 1057.69 539.851 1056.6 541.103 1055.47L546.362 1068.58C546.862 1069.8 546.205 1070.99 544.922 1071.24C543.638 1071.49 542.199 1070.7 541.729 1069.48L537.41 1058.79ZM541.291 1055.31L554.218 1063.63C555.407 1064.42 556.941 1064.23 557.598 1063.26C558.256 1062.29 557.849 1060.85 556.628 1060.1L544.515 1052.31C543.451 1053.31 542.355 1054.31 541.291 1055.31ZM554.03 1043.15C555.689 1041.52 557.317 1039.86 558.913 1038.27L574.907 1048.56C576.097 1049.34 576.535 1050.75 575.878 1051.72C575.22 1052.69 573.687 1052.87 572.497 1052.09L559.226 1043.55L564.641 1057.03C565.142 1058.25 564.484 1059.44 563.201 1059.69C561.918 1059.94 560.478 1059.16 559.977 1057.94L554.03 1043.15Z" fill="#CF4A60"/>
<path fill-rule="evenodd" clip-rule="evenodd" d="M1012.48 634.232L993.421 623.347C993.421 623.347 989.446 622.346 986.66 623.753C986.66 623.753 981.903 672.518 959.085 690.973C959.085 690.973 958.49 694.132 960.18 695.727C961.871 697.322 982.31 711.554 982.31 711.554C982.31 711.554 990.823 713.087 998.773 707.926C1006.72 702.765 1024.56 668.451 1024.19 664.104C1023.78 659.756 1012.48 634.232 1012.48 634.232Z" fill="#D4A037"/>
<path fill-rule="evenodd" clip-rule="evenodd" d="M1401.7 1058.13C1401.7 1058.13 1388.99 1156.75 1306.45 1156.75C1223.92 1156.75 1247.73 1156.75 1213.59 1156.75C1179.47 1156.75 1100.87 1069.23 1040.56 993.1C980.244 916.966 951.604 863.009 951.604 863.009C937.018 887.814 781.081 1012.21 744.585 1044.65C737.449 1051 706.43 1087.09 700.859 1087.09C700.859 1087.09 659.574 1089.85 628.618 1068.45C628.618 1068.45 638.478 1026.6 640.512 1024.04C733.348 908.208 836.764 777.835 888.065 726.005C939.335 674.175 991.919 702.765 1110.98 786.844C1230.05 870.923 1401.7 1058.13 1401.7 1058.13Z" fill="#472055"/>
<path fill-rule="evenodd" clip-rule="evenodd" d="M1221.54 560.006L1213.37 553.093C1213.37 553.093 1168.36 650.434 1158.84 705.955C1149.33 761.476 1191.39 755.126 1191.39 755.126C1191.39 755.126 1221.57 737.673 1222.35 715.464C1223.13 693.287 1221.54 560.006 1221.54 560.006Z" fill="#D4A037"/>
<path fill-rule="evenodd" clip-rule="evenodd" d="M1267.61 228.82C1267.61 228.82 1311.68 298.447 1378.07 326.661C1378.07 326.661 1385.67 374.894 1352.72 395.445C1319.76 415.964 1269.02 399.355 1269.02 399.355L1235.56 350.152L1267.61 228.82Z" fill="#E6AD83"/>
<path fill-rule="evenodd" clip-rule="evenodd" d="M1243.42 361.757L1238.13 354C1242.66 335.482 1250.46 303.202 1250.46 300.95C1250.46 297.791 1271.49 267.637 1271.49 267.637L1288.55 268.044L1288.14 335.076L1243.42 361.757Z" fill="#CB6459"/>
<path fill-rule="evenodd" clip-rule="evenodd" d="M1430.75 446.618C1430.75 446.618 1557.73 672.236 1443.45 1011.37C1443.45 1011.37 1431.56 1041.52 1433.13 1066.89C1434.72 1092.29 1347.39 1105.74 1308.52 1038.33C1269.65 970.923 1295.81 973.3 1252.96 931.261C1210.11 889.221 1142.63 837.673 1142.63 837.673C1142.63 837.673 1160.88 804.36 1197.37 798.01C1197.37 798.01 1197.37 776.584 1209.67 772.236C1209.67 772.236 1189.42 699.261 1191.02 649.308C1192.62 599.324 1221.16 513.681 1269.58 450.215C1269.58 450.215 1275.53 431.572 1267.99 417.278C1260.44 403.014 1259.25 397.447 1262.82 390.315C1262.82 390.315 1277.09 390.315 1289.02 381.588C1300.91 372.861 1330.68 372.079 1330.68 372.079L1430.75 446.618Z" fill="#F3CE63"/>
<path fill-rule="evenodd" clip-rule="evenodd" d="M1389.84 1087.59C1362.61 1086.78 1328.9 1073.68 1308.52 1038.33C1269.65 970.923 1295.81 973.3 1252.96 931.26C1210.11 889.221 1142.63 837.673 1142.63 837.673C1142.63 837.673 1160.88 804.36 1197.37 798.01C1197.37 798.01 1197.37 776.584 1209.67 772.236L1209.39 771.141L1305.3 804.861L1406.9 655.752L1423.61 701.514C1423.61 701.514 1354.5 912.743 1340.23 957.16C1327.24 997.479 1324.73 1054.85 1389.84 1087.59Z" fill="#D4A037"/>
<path fill-rule="evenodd" clip-rule="evenodd" d="M1278.57 566.418C1256.12 648.026 1261.88 735.358 1261.88 735.358C1261.88 735.358 1253.74 730.791 1253.15 742.896C1216.84 702.358 1135.71 709.521 1060.06 633.45C1045.32 618.592 1012.45 634.232 1012.45 634.232C1012.45 634.232 1020.37 678.242 982.279 711.554C982.279 711.554 969.571 757.566 1043.41 798.792C1117.21 840.05 1195.03 851.936 1237.88 882.058C1280.73 912.18 1315.66 906.644 1341.04 879.681C1366.42 852.718 1452.94 663.165 1442.64 591.754C1425.52 473.299 1301.04 484.81 1278.57 566.418Z" fill="#F3CE63"/>
<path fill-rule="evenodd" clip-rule="evenodd" d="M1265.98 631.323C1264.95 639.487 1264.14 647.463 1263.51 655.126C1294 658.942 1358.88 669.984 1424.24 699.543C1426.74 691.723 1429.06 683.997 1431.18 676.427C1363.86 646.556 1297.44 635.264 1265.98 631.323ZM1262.04 676.74C1295.25 681.37 1355.78 692.818 1417.41 719.749C1414.78 727.256 1412 734.795 1409.18 742.271C1350.96 716.621 1293.65 705.455 1261.29 700.825C1261.38 693.6 1261.6 685.53 1262.04 676.74Z" fill="white"/>
<path fill-rule="evenodd" clip-rule="evenodd" d="M1110.92 177.647C1110.92 177.647 1087.54 198.135 1103.69 241.456C1119.84 284.778 1131.55 302.17 1116.06 322.001C1116.06 322.001 1114.08 325.567 1116.87 327.85C1119.65 330.165 1129.73 334.106 1135.52 337.171C1141.31 340.237 1162.07 371.36 1174.74 381.056C1187.42 390.722 1215.31 383.09 1238.66 355.939C1262.01 328.82 1280.41 262.132 1272.31 235.607C1264.14 209.082 1157.5 167.262 1110.92 177.647Z" fill="#E6AD83"/>
<path fill-rule="evenodd" clip-rule="evenodd" d="M1208.73 240.08C1208.73 240.08 1164.07 256.69 1124.51 231.197C1084.94 205.704 1070.14 168.138 1104.54 134.763C1138.94 101.388 1220.25 58.0343 1289.61 107.299C1358.98 156.564 1325.64 231.103 1428.68 274.894C1483.05 298.01 1525.52 313.774 1553.1 343.302C1701.56 502.327 1413.63 735.702 1312.9 523.409C1246.64 383.809 1322.29 269.201 1208.73 240.08Z" fill="#472055"/>
<path fill-rule="evenodd" clip-rule="evenodd" d="M641.138 1147.87C641.138 1147.87 457.438 1152.25 450.333 1139.14C450.333 1139.14 450.333 1128.63 450.333 1121.63C450.333 1114.62 458.721 1104.58 481.57 1098.01C504.419 1091.44 553.122 1078.74 568.084 1074.14C583.045 1069.55 625.926 1022.75 632.03 1017.06C638.133 1011.37 666.523 1029.76 672.626 1032.82C678.73 1035.89 674.661 1043.33 671.625 1052.06C668.557 1060.79 641.138 1147.87 641.138 1147.87Z" fill="#CF4A60"/>
<path fill-rule="evenodd" clip-rule="evenodd" d="M450.333 1156.75H744.178C747.653 1156.75 750.501 1155.13 750.501 1153.16V1142.74C750.501 1140.77 747.653 1139.14 744.178 1139.14H450.333C446.858 1139.14 444.01 1140.77 444.01 1142.74V1153.16C444.01 1155.13 446.858 1156.75 450.333 1156.75Z" fill="#F2DBDF"/>
<path fill-rule="evenodd" clip-rule="evenodd" d="M450.333 1156.75H550.18C553.654 1156.75 556.503 1155.13 556.503 1153.16V1142.74C556.503 1140.77 553.654 1139.14 550.18 1139.14H450.333C446.858 1139.14 444.01 1140.77 444.01 1142.74V1153.16C444.01 1155.13 446.858 1156.75 450.333 1156.75Z" fill="white"/>
<path fill-rule="evenodd" clip-rule="evenodd" d="M580.259 1079.84C581.261 1082.9 590.401 1098.23 584.047 1101.92C577.693 1105.64 557.41 1118.97 545.986 1118.97C534.561 1118.97 510.46 1118.97 480.287 1118.97C450.082 1118.97 457.062 1109.9 457.062 1109.9C452.336 1114.03 450.333 1118.19 450.333 1121.6C450.333 1128.6 450.333 1139.11 450.333 1139.11H744.178C744.178 1139.11 756.604 1126.63 756.604 1097.32C756.604 1068.01 758.263 1051.15 753.318 1046.46C748.372 1041.77 744.929 1044.18 744.929 1044.18C722.08 1061.26 694.442 1049 679.982 1042.21C678.448 1041.49 676.977 1040.77 675.568 1040.05C663.831 1034.01 656.663 1028.6 646.209 1033.67C634.534 1039.36 593.437 1064.51 586.832 1068.45C580.259 1072.39 579.226 1076.77 580.259 1079.84Z" fill="#C73048"/>
<path fill-rule="evenodd" clip-rule="evenodd" d="M450.333 1125.94V1139.11H744.178C744.178 1139.11 756.604 1126.63 756.604 1097.32C756.604 1068.01 758.263 1051.15 753.318 1046.46C753.975 1055.85 748.216 1066.39 738.043 1066.39C727.902 1066.39 700.984 1066.39 679.481 1066.39C658.009 1066.39 653.658 1076.3 653.658 1076.3C653.658 1076.3 642.797 1094.82 635.003 1107.93C627.21 1121.03 614.189 1129.98 604.642 1129.98C595.096 1129.98 478.972 1129.98 463.353 1129.98C456.655 1129.95 452.68 1128.07 450.333 1125.94Z" fill="#BD263E"/>
<path fill-rule="evenodd" clip-rule="evenodd" d="M643.048 1040.55C644.237 1041.33 645.771 1041.15 646.428 1040.18C647.085 1039.21 646.678 1037.77 645.458 1037.02L626.991 1025.13L626.146 1023L622.139 1027.13L622.984 1027.69L630.527 1046.46C631.028 1047.68 632.468 1048.46 633.751 1048.21C635.035 1047.96 635.692 1046.78 635.191 1045.56L629.776 1032.07L643.048 1040.55ZM589.681 1058.79C590.902 1057.69 592.122 1056.6 593.374 1055.47L598.664 1068.58C599.165 1069.8 598.508 1070.99 597.224 1071.24C595.941 1071.49 594.501 1070.7 594 1069.48L589.681 1058.79ZM593.562 1055.31L606.489 1063.63C607.678 1064.42 609.212 1064.23 609.869 1063.26C610.527 1062.29 610.12 1060.85 608.899 1060.1L596.786 1052.31C595.722 1053.31 594.626 1054.31 593.562 1055.31ZM606.301 1043.15C607.96 1041.52 609.619 1039.86 611.184 1038.27L627.178 1048.56C628.368 1049.34 628.806 1050.75 628.149 1051.72C627.46 1052.69 625.958 1052.87 624.768 1052.09L611.528 1043.55L616.943 1057.03C617.444 1058.25 616.787 1059.44 615.503 1059.69C614.22 1059.94 612.78 1059.16 612.28 1057.94L606.301 1043.15Z" fill="white"/>
<path fill-rule="evenodd" clip-rule="evenodd" d="M865.591 574.644C865.685 573.988 866.28 573.55 866.937 573.612C867.594 573.706 868.064 574.3 867.97 574.957C867.97 574.957 867.125 580.994 866.969 582.933C866.906 583.809 867.031 584.998 867.751 585.936C868.283 586.593 869.159 587.187 870.537 587.469C870.944 587.563 871.538 587.563 872.29 587.5C874.543 587.313 877.767 586.312 880.772 584.153C883.714 581.995 886.375 578.586 887.439 573.581C887.908 571.36 888.034 568.826 887.783 565.949C887.721 565.292 888.19 564.698 888.847 564.666C889.505 564.604 890.099 565.073 890.162 565.73C890.444 568.858 890.287 571.642 889.786 574.05C888.597 579.743 885.592 583.59 882.212 586.061C878.863 588.532 875.138 589.627 872.54 589.877C871.57 589.971 870.725 589.94 870.099 589.815C868.095 589.408 866.749 588.47 865.904 587.406C864.715 585.874 864.527 584.06 864.621 582.746C864.715 580.9 865.591 574.676 865.591 574.644Z" fill="#B24949"/>
<path fill-rule="evenodd" clip-rule="evenodd" d="M888.128 577.522C887.47 577.679 886.844 577.303 886.688 576.646C886.531 575.989 886.907 575.364 887.564 575.207C887.564 575.207 891.758 574.175 893.104 568.858C893.261 568.201 893.918 567.825 894.575 567.982C895.233 568.138 895.608 568.795 895.452 569.421C893.73 576.177 888.159 577.522 888.128 577.522Z" fill="#B24949"/>
<path fill-rule="evenodd" clip-rule="evenodd" d="M884.653 595.883C883.996 595.883 883.464 595.351 883.464 594.695C883.464 594.038 883.996 593.506 884.653 593.506L911.196 593.287C911.853 593.287 912.385 593.819 912.385 594.476C912.385 595.132 911.853 595.664 911.196 595.696L884.653 595.883Z" fill="#CB6459"/>
<path fill-rule="evenodd" clip-rule="evenodd" d="M901.086 593.443C901.712 593.662 902.025 594.382 901.774 594.976C901.524 595.602 900.835 595.914 900.241 595.664C900.241 595.664 894.231 593.475 892.384 587.062C892.197 586.437 892.572 585.78 893.198 585.592C893.824 585.405 894.513 585.78 894.669 586.405C896.203 591.66 901.086 593.443 901.086 593.443Z" fill="#CB6459"/>
<path fill-rule="evenodd" clip-rule="evenodd" d="M835.543 620.406C834.886 620.375 834.385 619.781 834.448 619.124C834.511 618.467 835.074 617.966 835.731 618.029L864.34 620.25C864.997 620.312 865.498 620.875 865.435 621.532C865.404 622.189 864.809 622.69 864.152 622.627L835.543 620.406Z" fill="#CB6459"/>
<path fill-rule="evenodd" clip-rule="evenodd" d="M856.796 637.766C856.17 637.516 855.888 636.828 856.139 636.202C856.389 635.577 857.078 635.295 857.704 635.545L873.823 642.208C874.449 642.458 874.731 643.178 874.481 643.772C874.23 644.397 873.51 644.679 872.916 644.429L856.796 637.766Z" fill="#CB6459"/>
<path fill-rule="evenodd" clip-rule="evenodd" d="M888.848 662.946C888.19 662.977 887.627 662.477 887.596 661.789C887.564 661.132 888.096 660.569 888.722 660.569L895.076 660.287C895.734 660.256 896.297 660.788 896.328 661.445C896.36 662.102 895.828 662.665 895.17 662.696L888.848 662.946Z" fill="#CB6459"/>
<path fill-rule="evenodd" clip-rule="evenodd" d="M807.812 559.318L808.5 558.598C809.032 558.035 809.94 558.004 810.503 558.536L831.412 577.96C831.975 578.492 832.006 579.368 831.474 579.962L830.786 580.682C830.254 581.245 829.377 581.276 828.783 580.744L807.843 561.32C807.311 560.788 807.279 559.881 807.812 559.318Z" fill="#472055"/>
<path fill-rule="evenodd" clip-rule="evenodd" d="M1290.3 998.699C1291.09 998.949 1291.49 999.825 1291.24 1000.61C1290.96 1001.39 1290.12 1001.8 1289.33 1001.55C1285.3 1000.14 1281.07 998.261 1276.72 995.853C1272.62 993.569 1268.36 990.785 1263.98 987.439C1211.05 947.182 997.991 777.335 994.955 774.895C992.889 773.738 966.347 759.443 941.901 776.49C915.828 794.632 706.243 1027.04 705.648 1027.7C705.085 1028.32 704.146 1028.35 703.551 1027.82C702.925 1027.26 702.894 1026.32 703.457 1025.72C704.052 1025.07 913.919 792.38 940.242 774.051C966.347 755.877 994.642 771.298 996.489 772.33C996.583 772.393 996.677 772.424 996.802 772.518C997.428 773.018 1212.71 944.648 1265.86 985.093C1270.15 988.346 1274.28 991.036 1278.25 993.256C1282.38 995.54 1286.45 997.354 1290.3 998.699Z" fill="#350A3D"/>
<path fill-rule="evenodd" clip-rule="evenodd" d="M662.36 997.01C661.671 996.541 661.483 995.633 661.922 994.945C662.36 994.257 663.299 994.069 663.987 994.507C664.144 994.601 715.32 1028.07 729.092 1051.12C729.499 1051.84 729.279 1052.75 728.591 1053.16C727.871 1053.59 726.963 1053.34 726.525 1052.66C713.097 1030.2 662.485 997.104 662.36 997.01Z" fill="#350A3D"/>
<path fill-rule="evenodd" clip-rule="evenodd" d="M952.293 866.262C951.98 867.013 951.072 867.388 950.321 867.044C949.57 866.731 949.194 865.855 949.538 865.105C949.57 865.042 957.082 848.214 957.082 830.072C957.082 829.227 957.739 828.57 958.584 828.57C959.398 828.57 960.086 829.227 960.086 830.072C960.086 848.808 952.293 866.231 952.293 866.262Z" fill="#350A3D"/>
<path fill-rule="evenodd" clip-rule="evenodd" d="M980.87 711.21C981.058 710.397 981.872 709.928 982.685 710.115C983.499 710.303 983.969 711.116 983.781 711.93C983.75 712.055 971.386 756.847 1044.16 797.51C1081.12 818.154 1119.15 831.448 1153.24 843.366C1187.2 855.252 1217.28 865.762 1238.75 880.87C1259.03 895.133 1277.44 901.295 1293.84 900.92C1311.56 900.513 1327.02 892.443 1339.98 878.68C1353.44 864.385 1384.3 803.828 1408.59 739.581C1426.46 692.349 1440.76 643.209 1441.92 609.146C1441.95 608.332 1442.64 607.676 1443.45 607.707C1444.27 607.738 1444.93 608.426 1444.89 609.24C1443.71 643.647 1429.34 693.162 1411.37 740.613C1386.93 805.174 1355.78 866.2 1342.14 880.713C1328.65 895.039 1312.5 903.453 1293.9 903.86C1276.88 904.267 1257.85 897.917 1237 883.278C1215.84 868.389 1185.95 857.942 1152.21 846.149C1118 834.169 1079.84 820.845 1042.66 800.075C967.849 758.317 980.807 711.335 980.87 711.21ZM1263.39 734.764C1262.98 727.663 1258.6 644.71 1280.04 566.793C1280.26 565.98 1279.79 565.167 1279 564.948C1278.22 564.729 1277.38 565.198 1277.16 566.011C1256.75 640.206 1259.6 718.936 1260.32 733.168C1257.63 732.512 1253.43 732.73 1252.09 739.518C1236.28 723.44 1213.24 715.12 1186.29 705.361C1149.01 691.88 1104.16 675.646 1061.19 632.386C1045.66 616.778 1011.95 632.824 1011.86 632.887C1011.11 633.231 1010.79 634.138 1011.14 634.889C1011.48 635.639 1012.39 635.952 1013.14 635.608C1013.23 635.577 1045.07 620.406 1059.06 634.513C1102.53 678.242 1147.7 694.601 1185.29 708.207C1213.09 718.279 1236.69 726.819 1251.99 743.803C1252.37 744.366 1255.18 748.777 1256.5 754.626C1256.69 755.439 1257.47 755.94 1258.28 755.752C1259.1 755.564 1259.6 754.782 1259.41 753.969C1258.13 748.276 1255.53 743.866 1254.68 742.521C1255.28 734.388 1259.97 736.14 1260.94 736.609C1261.82 737.61 1265.01 741.489 1265.7 743.991C1265.92 744.773 1266.73 745.242 1267.52 745.055C1268.33 744.836 1268.77 744.022 1268.58 743.209C1267.77 740.081 1264.42 735.984 1263.39 734.764Z" fill="#D4A037"/>
<path fill-rule="evenodd" clip-rule="evenodd" d="M1173.87 287.031C1164.29 290.19 1159.09 300.543 1162.29 310.084C1165.45 319.655 1175.78 324.847 1185.35 321.657C1194.93 318.498 1200.13 308.144 1196.93 298.573C1193.77 289.064 1183.41 283.871 1173.87 287.031Z" fill="#CB6459"/>
<path fill-rule="evenodd" clip-rule="evenodd" d="M1147.7 254.125C1141.19 253.437 1134.05 255.126 1129.7 260.349C1128.7 261.569 1126.89 261.726 1125.66 260.725C1124.44 259.724 1124.29 257.91 1125.29 256.69C1130.67 250.184 1140.16 247.306 1148.39 248.432C1149.95 248.62 1151.08 250.058 1150.89 251.622C1150.67 253.186 1149.23 254.312 1147.7 254.125Z" fill="#350A3D"/>
<path fill-rule="evenodd" clip-rule="evenodd" d="M1142.75 269.796C1144.29 269.264 1145.92 269.295 1147.32 269.827C1147.76 269.545 1148.45 268.951 1148.58 267.919C1148.67 267.325 1149.2 266.918 1149.8 267.012C1150.39 267.106 1150.8 267.637 1150.7 268.232C1150.55 269.42 1149.95 270.296 1149.33 270.922L1149.39 270.953C1150.17 270.452 1151.02 269.639 1151.46 268.388C1151.67 267.825 1152.27 267.543 1152.83 267.731C1153.4 267.919 1153.68 268.544 1153.49 269.107C1152.99 270.515 1152.11 271.516 1151.24 272.235C1152.18 271.829 1153.15 271.203 1153.93 270.171C1154.3 269.702 1154.96 269.608 1155.43 269.983C1155.9 270.359 1155.96 271.016 1155.59 271.485C1154.77 272.548 1153.83 273.268 1152.86 273.799L1151.52 274.488L1154.24 282.182C1155.49 285.686 1153.62 289.564 1150.11 290.815C1146.6 292.035 1142.72 290.19 1141.5 286.687L1138.56 278.366C1137.4 274.894 1139.25 271.016 1142.75 269.796Z" fill="#350A3D"/>
<path fill-rule="evenodd" clip-rule="evenodd" d="M1090.01 185.467C1089.89 184.653 1090.45 183.871 1091.27 183.746C1092.08 183.621 1092.83 184.184 1092.96 184.997C1093.02 185.248 1106.54 276.396 1206.04 241.331C1206.83 241.05 1207.67 241.457 1207.95 242.239C1208.23 243.021 1207.83 243.865 1207.04 244.147C1104.1 280.431 1090.04 185.717 1090.01 185.467Z" fill="#472055"/>
<path fill-rule="evenodd" clip-rule="evenodd" d="M1204.82 248.557C1207.33 198.103 1274.47 239.674 1236.47 279.868C1236.47 279.868 1209.3 277.835 1204.82 248.557Z" fill="#E6AD83"/>
<path fill-rule="evenodd" clip-rule="evenodd" d="M1206.32 248.619C1206.29 249.433 1205.57 250.09 1204.76 250.027C1203.95 249.996 1203.29 249.276 1203.35 248.463C1204.01 235.451 1208.86 228.194 1215.21 225.285C1220.72 222.751 1227.33 223.565 1233.24 226.755C1239.06 229.883 1244.26 235.326 1247.17 242.176C1251.74 252.905 1250.71 267.012 1237.59 280.868C1237.03 281.463 1236.09 281.494 1235.5 280.931C1234.9 280.368 1234.87 279.43 1235.43 278.835C1247.58 266.011 1248.58 253.092 1244.45 243.364C1241.82 237.171 1237.12 232.229 1231.87 229.414C1226.73 226.661 1221.1 225.911 1216.5 228.038C1211.02 230.509 1206.89 236.921 1206.32 248.619Z" fill="#CB6459"/>
<path fill-rule="evenodd" clip-rule="evenodd" d="M1324.98 154.375C1324.67 153.624 1325.01 152.748 1325.8 152.404C1326.58 152.091 1327.46 152.435 1327.77 153.217C1327.86 153.405 1356.57 222.188 1400.6 249.683C1414.88 258.598 1431.84 266.543 1448.78 274.519C1484.83 291.441 1520.7 308.269 1530.59 334.106C1530.88 334.888 1530.5 335.733 1529.72 336.045C1528.94 336.327 1528.06 335.951 1527.78 335.169C1518.29 310.459 1482.99 293.881 1447.49 277.209C1430.46 269.201 1413.38 261.194 1399.01 252.217C1354.12 224.222 1325.05 154.562 1324.98 154.375Z" fill="#472055"/>
<path fill-rule="evenodd" clip-rule="evenodd" d="M1094.15 147.087C1096.93 142.927 1100.37 138.798 1104.57 134.731C1111.42 128.069 1120.16 121.031 1130.3 114.4C1190.11 181.682 1278.03 173.362 1331.99 159.38C1333.65 162.883 1335.25 166.418 1336.78 169.952C1185.67 226.349 1119.75 179.336 1094.15 147.087Z" fill="#542763"/>
<path fill-rule="evenodd" clip-rule="evenodd" d="M790.627 432.73H880.396C887.408 432.73 893.167 438.454 893.167 445.461V500.512C893.167 507.519 887.408 513.274 880.396 513.274H850.567L838.83 532.261C838.329 533.074 837.515 533.512 836.545 533.512C835.606 533.512 834.761 533.074 834.26 532.261L822.491 513.274H790.627C783.616 513.274 777.857 507.55 777.857 500.512V445.461C777.857 438.454 783.616 432.73 790.627 432.73Z" fill="#CF4A60"/>
<path fill-rule="evenodd" clip-rule="evenodd" d="M814.009 457.597C818.735 452.874 826.466 452.874 831.192 457.597L835.481 461.882L839.769 457.597C844.495 452.874 852.226 452.874 856.952 457.597C861.679 462.32 861.679 470.046 856.952 474.769L852.664 479.055L835.481 496.227L818.297 479.055L814.009 474.769C809.282 470.046 809.282 462.32 814.009 457.597Z" fill="white"/>
<path fill-rule="evenodd" clip-rule="evenodd" d="M879.645 299.949H995.362C1004.41 299.949 1011.79 307.331 1011.79 316.371V387.344C1011.79 396.383 1004.41 403.765 995.362 403.765H956.894L941.744 428.257C941.087 429.289 940.054 429.883 938.802 429.883C937.582 429.883 936.517 429.289 935.86 428.257L920.711 403.765H879.614C870.568 403.765 863.181 396.383 863.181 387.344V316.371C863.181 307.362 870.599 299.949 879.645 299.949Z" fill="#CF4A60"/>
<path fill-rule="evenodd" clip-rule="evenodd" d="M909.787 332.042C915.891 325.942 925.844 325.942 931.948 332.042L937.488 337.578L943.028 332.042C949.131 325.942 959.085 325.942 965.188 332.042C971.292 338.141 971.292 348.088 965.188 354.187L959.648 359.724L937.488 381.87L915.327 359.724L909.787 354.187C903.684 348.088 903.684 338.141 909.787 332.042Z" fill="white"/>
<path fill-rule="evenodd" clip-rule="evenodd" d="M681.953 336.014H766.62C773.225 336.014 778.64 341.425 778.64 348.025V399.949C778.64 406.549 773.225 411.96 766.62 411.96H738.481L727.401 429.884C726.932 430.634 726.149 431.072 725.241 431.072C724.334 431.072 723.583 430.634 723.082 429.884L712.001 411.96H681.922C675.318 411.96 669.903 406.549 669.903 399.949V348.025C669.934 341.425 675.349 336.014 681.953 336.014Z" fill="#CF4A60"/>
<path fill-rule="evenodd" clip-rule="evenodd" d="M704.02 359.505C708.496 355.063 715.789 355.063 720.233 359.505L724.303 363.54L728.34 359.505C732.785 355.063 740.109 355.063 744.554 359.505C749.03 363.947 749.03 371.266 744.554 375.708L740.516 379.774L724.303 395.977L708.089 379.774L704.02 375.708C699.575 371.235 699.575 363.947 704.02 359.505Z" fill="white"/>
<path fill-rule="evenodd" clip-rule="evenodd" d="M708.152 82.2134H908.66C924.31 82.2134 937.143 95.0066 937.143 110.678V233.637C937.143 249.277 924.31 262.101 908.66 262.101H842.022L815.761 304.516C814.635 306.33 812.819 307.362 810.691 307.362C808.562 307.362 806.716 306.33 805.589 304.516L779.359 262.101H708.152C692.47 262.101 679.668 249.277 679.668 233.637V110.678C679.668 95.0066 692.502 82.2134 708.152 82.2134Z" fill="#CF4A60"/>
<path fill-rule="evenodd" clip-rule="evenodd" d="M760.423 137.797C770.971 127.256 788.249 127.256 798.828 137.797L808.437 147.4L818.046 137.797C828.594 127.256 845.872 127.256 856.452 137.797C867.031 148.338 867.031 165.604 856.452 176.177L846.842 185.78L808.437 224.159L770.032 185.78L760.423 176.177C749.875 165.604 749.875 148.338 760.423 137.797Z" fill="white"/>
<path fill-rule="evenodd" clip-rule="evenodd" d="M-107.029 723.847C-173.636 694.601 -184.215 770.234 -154.605 829.884C-134.573 870.235 -62.4263 973.582 -13.8172 1061.51H41.6466C22.6788 928.508 -38.1687 754.063 -107.029 723.847Z" fill="#9EBCD2"/>
<path fill-rule="evenodd" clip-rule="evenodd" d="M21.8337 1061.48C-25.4608 900.357 -134.385 748.526 -134.823 747.901C-135.762 746.587 -137.578 746.274 -138.892 747.213C-140.207 748.151 -140.52 749.997 -139.581 751.31C-139.143 751.905 -31.3765 902.171 15.8241 1061.48H21.8337Z" fill="#7696AE"/>
<path fill-rule="evenodd" clip-rule="evenodd" d="M33.759 484.904C100.929 418.029 146.815 502.827 137.456 588.001C128.598 668.764 51.0367 945.993 60.3015 1062.57L33.8216 1062.6C-26.3685 913.181 -52.2537 570.547 33.759 484.904Z" fill="#7696AE"/>
<path fill-rule="evenodd" clip-rule="evenodd" d="M43.5561 1062.6C-12.2833 827.038 77.3915 501.232 77.6732 500.106C78.2366 498.073 80.2711 496.853 82.2743 497.322C84.2776 497.822 85.4357 499.856 84.9036 501.857C84.5906 502.952 -5.17821 829.165 51.2246 1062.57L43.5561 1062.6Z" fill="#9EBCD2"/>
<path fill-rule="evenodd" clip-rule="evenodd" d="M199.086 632.824C269.512 598.667 283.002 679.024 253.079 744.085C228.289 798.011 122.558 956.315 80.5215 1058.94L45.6218 1057.72C49.5343 913.995 115.953 673.143 199.086 632.824Z" fill="#9EBCD2"/>
<path fill-rule="evenodd" clip-rule="evenodd" d="M58.3923 1058.19C90.3811 864.73 229.041 658.098 229.542 657.347C230.512 655.908 232.452 655.502 233.892 656.44C235.332 657.41 235.708 659.349 234.737 660.788C234.237 661.539 96.4846 866.857 64.5898 1058.41L58.3923 1058.19Z" fill="#7696AE"/>
<path fill-rule="evenodd" clip-rule="evenodd" d="M75.7324 1070.11H-7.77633L-29.5925 1089.78L-11.7514 1158.32H33.978H79.7075L97.5173 1089.78L75.7324 1070.11Z" fill="#472055"/>
<path fill-rule="evenodd" clip-rule="evenodd" d="M69.0968 1070.11H-7.77633L-29.5925 1089.78L-22.8943 1115.46L96.0149 1095.57L97.5173 1089.78L76.6088 1070.89L69.0968 1070.11Z" fill="#350A3D"/>
<path fill-rule="evenodd" clip-rule="evenodd" d="M97.5174 1044.59H-29.5924C-33.3798 1044.59 -36.5098 1047.68 -36.5098 1051.5V1082.87C-36.5098 1086.66 -33.4111 1089.78 -29.5924 1089.78H97.5174C101.305 1089.78 104.435 1086.69 104.435 1082.87V1051.5C104.435 1047.71 101.336 1044.59 97.5174 1044.59Z" fill="#472055"/>
<path fill-rule="evenodd" clip-rule="evenodd" d="M-160.239 1156.75H1670.98C1689.82 1156.75 1705.25 1172.17 1705.25 1191C1705.25 1209.83 1689.82 1225.26 1670.98 1225.26H1555.38C1544.9 1225.26 1536.35 1233.83 1536.35 1244.27C1536.35 1254.72 1544.93 1263.29 1555.38 1263.29H1597.67C1610.75 1263.29 1621.46 1273.99 1621.46 1287.06C1621.46 1300.14 1610.75 1310.84 1597.67 1310.84H-83.1471C-96.2305 1310.84 -106.935 1300.14 -106.935 1287.06C-106.935 1273.99 -96.2305 1263.29 -83.1471 1263.29H-49.8437C-39.3582 1263.29 -30.8132 1254.72 -30.8132 1244.27C-30.8132 1233.79 -39.3895 1225.26 -49.8437 1225.26H-160.239C-179.082 1225.26 -194.513 1209.83 -194.513 1191C-194.513 1172.17 -179.082 1156.75 -160.239 1156.75ZM-142.398 1310.84C-129.816 1310.84 -119.549 1300.58 -119.549 1288V1286.09C-119.549 1273.52 -129.816 1263.26 -142.398 1263.26C-154.95 1263.26 -165.247 1273.52 -165.247 1286.09V1288C-165.247 1300.58 -154.981 1310.84 -142.398 1310.84Z" fill="#350A3D"/>
<path fill-rule="evenodd" clip-rule="evenodd" d="M1503.9 37.4529C1524.87 37.4529 1544.8 45.7106 1559.64 60.537C1574.48 75.3635 1582.74 95.2884 1582.74 116.246C1582.74 137.203 1574.48 157.128 1559.64 171.954C1544.8 186.781 1524.9 195.038 1503.9 195.038C1482.92 195.038 1462.99 186.781 1448.15 171.954C1433.31 157.128 1425.05 137.203 1425.05 116.246C1425.05 95.2884 1433.31 75.3635 1448.15 60.537C1462.99 45.7106 1482.92 37.4529 1503.9 37.4529ZM1574.16 120.437H1541.99C1541.77 128.976 1540.92 137.578 1539.3 145.961C1547.37 147.838 1555.57 150.622 1562.9 154.594C1569.59 144.334 1573.44 132.605 1574.16 120.437ZM1533.6 120.437H1508.09V142.082C1515.79 142.27 1523.49 142.989 1531.09 144.303C1532.6 136.421 1533.38 128.413 1533.6 120.437ZM1499.67 120.437H1474.16C1474.35 128.413 1475.16 136.452 1476.66 144.303C1484.24 142.989 1491.97 142.27 1499.67 142.082V120.437ZM1465.77 120.437H1433.59C1434.31 132.636 1438.16 144.366 1444.83 154.594C1452.16 150.622 1460.36 147.869 1468.43 145.961C1466.84 137.547 1465.99 128.976 1465.77 120.437ZM1433.59 112.023H1465.77C1465.96 104.766 1466.59 97.5093 1467.77 90.3463C1459.29 88.2818 1450.56 85.2477 1443.02 80.8686C1437.44 90.3776 1434.22 101.013 1433.59 112.023ZM1475.98 92.0667C1474.91 98.6666 1474.32 105.36 1474.16 112.023H1499.67V94.3813C1491.75 94.1936 1483.8 93.4429 1475.98 92.0667ZM1531.78 92.0667C1523.99 93.4429 1516.04 94.1937 1508.12 94.4126V112.054H1533.63C1533.41 105.329 1532.85 98.6353 1531.78 92.0667ZM1541.99 112.023H1574.16C1573.51 101.013 1570.31 90.3776 1564.74 80.8373C1557.17 85.2477 1548.47 88.2819 1539.98 90.315C1541.17 97.478 1541.83 104.766 1541.99 112.023ZM1508.09 46.6177V85.9985C1515.48 85.8108 1522.89 85.1226 1530.16 83.8402C1528.72 77.4905 1526.74 71.172 1524.05 65.2602C1521.08 58.6603 1515.57 49.339 1508.09 46.6177ZM1508.09 150.465V185.811C1515.57 183.09 1521.08 173.768 1524.08 167.2C1526.24 162.477 1527.9 157.503 1529.25 152.467C1522.27 151.31 1515.16 150.653 1508.09 150.465ZM1499.67 185.842V150.497C1492.6 150.684 1485.52 151.31 1478.51 152.498C1479.83 157.534 1481.52 162.508 1483.68 167.231C1486.68 173.768 1492.19 183.121 1499.67 185.842ZM1499.67 85.9672V46.6177C1492.19 49.339 1486.65 58.6603 1483.68 65.229C1480.98 71.1408 1479.04 77.4592 1477.57 83.8089C1484.86 85.0914 1492.28 85.7795 1499.67 85.9672ZM1447.68 73.8308C1454.32 77.6156 1461.95 80.2743 1469.37 82.0572C1470.94 75.1132 1473.1 68.2005 1476.04 61.7257C1478.07 57.2527 1480.64 52.6859 1483.83 48.7134C1472.63 52.0291 1462.42 58.1285 1454.1 66.4488C1451.78 68.7635 1449.65 71.2346 1447.68 73.8308ZM1538.39 82.0885C1545.81 80.2743 1553.44 77.6156 1560.08 73.8621C1558.11 71.2659 1555.95 68.7948 1553.66 66.4801C1545.34 58.1598 1535.13 52.0916 1523.93 48.7447C1527.09 52.7172 1529.66 57.284 1531.72 61.7569C1534.66 68.2005 1536.82 75.1445 1538.39 82.0885ZM1557.86 161.413C1551.47 158.129 1544.43 155.783 1537.48 154.156C1536.01 159.818 1534.13 165.385 1531.72 170.703C1529.69 175.176 1527.12 179.743 1523.93 183.715C1535.13 180.4 1545.34 174.3 1553.66 166.011C1555.13 164.51 1556.54 162.977 1557.86 161.413ZM1470.28 154.156C1463.33 155.783 1456.26 158.129 1449.87 161.413C1451.22 163.008 1452.59 164.541 1454.07 165.98C1462.39 174.3 1472.59 180.368 1483.8 183.684C1480.64 179.711 1478.07 175.145 1476.01 170.672C1473.63 165.385 1471.75 159.786 1470.28 154.156Z" fill="white"/>
<path fill-rule="evenodd" clip-rule="evenodd" d="M-30.5314 362.727C-27.2449 356.69 -22.6751 351.435 -16.5403 348.151C-10.7811 345.054 -7.68233 340.112 -5.96083 333.95C-3.89502 326.537 -3.80113 317.81 -3.80113 310.146C-3.80113 307.143 -1.3597 304.704 1.64511 304.704H10.9725C11.9115 304.704 12.8819 304.86 13.7896 305.142C18.109 306.487 21.7711 310.772 23.9308 314.588C26.873 319.812 28.3441 325.911 28.3441 331.885C28.3441 335.889 27.7181 339.862 26.4974 343.678C25.6523 346.336 23.3674 354.094 24.4316 356.721C24.7133 356.909 25.7149 356.94 26.0279 356.94H49.4404C52.1009 356.94 54.824 357.222 57.3906 357.91C61.0215 358.879 64.308 360.662 66.812 363.509C69.8481 366.981 71.0688 371.266 71.0688 375.802C71.0688 378.148 70.7245 380.525 70.2237 382.839C73.6041 391.535 74.2927 402.358 67.4067 409.458C67.8449 416.652 66.0608 424.472 59.9573 428.883C56.6394 439.017 48.4701 445.586 37.4212 445.586H-5.42873C-12.753 445.586 -20.1085 441.707 -26.0555 437.203C-26.6189 439.236 -27.7144 441.113 -29.2481 442.677L-29.4359 442.865C-31.6895 444.992 -34.6631 446.18 -37.7618 446.18H-57.2931C-60.517 446.18 -63.5844 444.898 -65.8693 442.614C-68.1542 440.331 -69.4375 437.266 -69.4375 434.044V372.423C-69.4375 369.202 -68.1542 366.136 -65.8067 363.759L-65.6189 363.603C-63.3653 361.476 -60.3918 360.287 -57.2931 360.287H-37.7618C-35.1326 360.287 -32.5972 361.163 -30.5314 362.727ZM-25.6173 423.252C-20.7032 428.195 -12.44 434.732 -5.39742 434.732H37.5464C43.8064 434.732 48.877 430.478 50.0664 424.316C50.4107 422.689 51.4749 421.282 52.9773 420.531C56.9525 418.561 57.0463 412.023 56.4829 408.395C56.0447 406.299 56.8585 404.172 58.58 402.89C63.7446 399.073 61.9918 390.784 59.8008 385.874C59.1434 384.654 58.987 383.246 59.3313 381.901C59.8634 379.962 60.239 377.866 60.239 375.833C60.239 374.05 59.9259 372.079 58.7052 370.703C57.6723 369.546 56.1386 368.858 54.6675 368.451C53.0086 368.013 51.2558 367.857 49.5343 367.857H26.1218C20.8947 367.857 16.6692 366.136 14.5407 361.006C12.0993 355.095 14.3843 346.211 16.1997 340.425C17.0761 337.641 17.5456 334.763 17.5456 331.854C17.5456 327.756 16.5753 323.503 14.5407 319.937C13.9147 318.811 12.1306 316.152 10.7847 315.589H7.09132C6.96613 322.689 6.46533 330.04 4.55602 336.859C1.98941 345.961 -2.86211 353.155 -11.3445 357.691C-19.4199 362.039 -24.2401 372.611 -25.6173 381.369V423.252ZM-37.7618 371.204H-57.2931C-57.6061 371.204 -57.8878 371.297 -58.0443 371.454L-58.1695 371.579C-58.3886 371.798 -58.5451 372.111 -58.5451 372.455V434.075C-58.5451 434.419 -58.4199 434.701 -58.1695 434.951C-57.9191 435.17 -57.6374 435.326 -57.2931 435.326H-37.7618C-37.4488 435.326 -37.1984 435.232 -37.0106 435.107L-36.8854 434.982C-36.6663 434.763 -36.5098 434.45 -36.5098 434.106V372.486C-36.5098 372.142 -36.635 371.829 -36.8854 371.61C-37.1358 371.329 -37.4488 371.204 -37.7618 371.204Z" fill="white"/>
<path fill-rule="evenodd" clip-rule="evenodd" d="M292.799 132.511H310.515C314.771 132.511 318.277 129.039 318.277 124.754V107.05C318.277 102.796 314.803 99.2922 310.515 99.2922H292.799C288.542 99.2922 285.036 102.764 285.036 107.05V124.754C285.036 129.008 288.542 132.511 292.799 132.511Z" fill="white"/>
<path fill-rule="evenodd" clip-rule="evenodd" d="M354.304 132.511H372.02C376.276 132.511 379.782 129.039 379.782 124.754V107.05C379.782 102.796 376.308 99.2922 372.02 99.2922H354.304C350.047 99.2922 346.541 102.764 346.541 107.05V124.754C346.541 129.008 350.016 132.511 354.304 132.511Z" fill="#C7C0DD"/>
<path fill-rule="evenodd" clip-rule="evenodd" d="M415.777 132.511H433.493C437.75 132.511 441.255 129.039 441.255 124.754V107.05C441.255 102.796 437.781 99.2922 433.493 99.2922H415.777C411.52 99.2922 408.015 102.764 408.015 107.05V124.754C408.015 129.008 411.52 132.511 415.777 132.511Z" fill="#C7C0DD"/>
<path fill-rule="evenodd" clip-rule="evenodd" d="M477.251 132.511H494.966C499.223 132.511 502.729 129.039 502.729 124.754V107.05C502.729 102.796 499.254 99.2922 494.966 99.2922H477.251C472.994 99.2922 469.488 102.764 469.488 107.05V124.754C469.519 129.008 472.994 132.511 477.251 132.511Z" fill="#C7C0DD"/>
<path fill-rule="evenodd" clip-rule="evenodd" d="M538.755 132.511H556.471C560.728 132.511 564.234 129.039 564.234 124.754V107.05C564.234 102.796 560.759 99.2922 556.471 99.2922H538.755C534.498 99.2922 530.993 102.764 530.993 107.05V124.754C530.993 129.008 534.498 132.511 538.755 132.511Z" fill="white"/>
<path fill-rule="evenodd" clip-rule="evenodd" d="M600.229 132.511H617.945C622.201 132.511 625.707 129.039 625.707 124.754V107.05C625.707 102.796 622.233 99.2922 617.945 99.2922H600.229C595.972 99.2922 592.466 102.764 592.466 107.05V124.754C592.498 129.008 595.972 132.511 600.229 132.511Z" fill="#C7C0DD"/>
<path fill-rule="evenodd" clip-rule="evenodd" d="M417.999 65.5104H435.715C439.972 65.5104 443.478 62.0384 443.478 57.7531V40.049C443.478 35.795 440.003 32.2917 435.715 32.2917H417.999C413.743 32.2917 410.237 35.7638 410.237 40.049V57.7531C410.237 62.0384 413.743 65.5104 417.999 65.5104Z" fill="#C7C0DD"/>
<path fill-rule="evenodd" clip-rule="evenodd" d="M479.504 65.5104H497.22C501.477 65.5104 504.982 62.0384 504.982 57.7531V40.049C504.982 35.795 501.508 32.2917 497.22 32.2917H479.504C475.247 32.2917 471.742 35.7638 471.742 40.049V57.7531C471.742 62.0384 475.216 65.5104 479.504 65.5104Z" fill="white"/>
<path fill-rule="evenodd" clip-rule="evenodd" d="M540.978 65.5104H558.693C562.95 65.5104 566.456 62.0384 566.456 57.7531V40.049C566.456 35.795 562.982 32.2917 558.693 32.2917H540.978C536.721 32.2917 533.215 35.7638 533.215 40.049V57.7531C533.215 62.0384 536.721 65.5104 540.978 65.5104Z" fill="#C7C0DD"/>
<path fill-rule="evenodd" clip-rule="evenodd" d="M477.251 204.454H494.966C499.223 204.454 502.729 200.982 502.729 196.696V178.961C502.729 174.707 499.254 171.204 494.966 171.204H477.251C472.994 171.204 469.488 174.676 469.488 178.961V196.696C469.519 200.982 472.994 204.454 477.251 204.454Z" fill="white"/>
<path fill-rule="evenodd" clip-rule="evenodd" d="M538.755 204.454H556.471C560.728 204.454 564.234 200.982 564.234 196.696V178.961C564.234 174.707 560.759 171.204 556.471 171.204H538.755C534.498 171.204 530.993 174.676 530.993 178.961V196.696C530.993 200.982 534.498 204.454 538.755 204.454Z" fill="#C7C0DD"/>
<path fill-rule="evenodd" clip-rule="evenodd" d="M896.829 1031.48C904.247 1024.07 916.392 1024.07 923.81 1031.48L925.625 1033.29L927.472 1031.48C934.89 1024.07 947.034 1024.07 954.453 1031.48C961.871 1038.89 961.871 1051.03 954.453 1058.44L952.606 1060.29L925.625 1087.25L898.644 1060.29L896.798 1058.44C889.411 1051.03 889.411 1038.86 896.829 1031.48Z" fill="#C7C0DD"/>
<path d="M461.704 458.239C461.916 443.419 450.066 431.233 435.235 431.021C420.405 430.809 408.21 442.651 407.998 457.472C407.786 472.292 419.637 484.479 434.467 484.691C449.298 484.903 461.492 473.06 461.704 458.239Z" fill="white"/>
<path fill-rule="evenodd" clip-rule="evenodd" d="M434.839 493.193C455.779 493.193 472.931 510.334 472.931 531.26V547.619V557.597V568.358C472.931 570.704 471.022 572.612 468.674 572.612H401.003C398.656 572.612 396.747 570.704 396.747 568.358V557.597V547.619V531.26C396.747 510.334 413.868 493.193 434.839 493.193Z" fill="white"/>
<path fill-rule="evenodd" clip-rule="evenodd" d="M971.855 170.484C979.273 163.071 991.418 163.071 998.836 170.484L1000.68 172.329L1002.5 170.484C1009.92 163.071 1022.06 163.071 1029.48 170.484C1036.9 177.897 1036.9 190.034 1029.48 197.447L1027.63 199.261L1000.65 226.224L973.671 199.261L971.855 197.447C964.437 190.034 964.437 177.897 971.855 170.484Z" fill="#C7C0DD"/>
<path fill-rule="evenodd" clip-rule="evenodd" d="M636.881 283.34C641.107 279.117 648.024 279.117 652.25 283.34L653.283 284.372L654.315 283.34C658.541 279.117 665.458 279.117 669.684 283.34C673.909 287.563 673.909 294.475 669.684 298.698L668.651 299.73L653.283 315.088L637.914 299.73L636.881 298.698C632.656 294.475 632.656 287.563 636.881 283.34Z" fill="#C7C0DD"/>
<path fill-rule="evenodd" clip-rule="evenodd" d="M949.914 489.627C958.083 481.463 971.417 481.463 979.587 489.627L981.59 491.629L983.593 489.627C991.762 481.463 1005.1 481.463 1013.27 489.627C1021.43 497.76 1021.43 511.116 1013.27 519.28L1011.26 521.282L981.59 550.935L951.917 521.282L949.914 519.28C941.745 511.116 941.745 497.76 949.914 489.627Z" fill="#C7C0DD"/>
<path fill-rule="evenodd" clip-rule="evenodd" d="M189.07 975.74H206.786C211.043 975.74 214.549 972.268 214.549 967.983V950.247C214.549 945.993 211.074 942.521 206.786 942.521H189.07C184.813 942.521 181.308 945.993 181.308 950.247V967.983C181.339 972.268 184.813 975.74 189.07 975.74Z" fill="white"/>
<path fill-rule="evenodd" clip-rule="evenodd" d="M250.575 975.74H268.291C272.548 975.74 276.053 972.268 276.053 967.983V950.247C276.053 945.993 272.579 942.521 268.291 942.521H250.575C246.318 942.521 242.812 945.993 242.812 950.247V967.983C242.812 972.268 246.318 975.74 250.575 975.74Z" fill="#C7C0DD"/>
<path fill-rule="evenodd" clip-rule="evenodd" d="M312.049 975.74H329.764C334.021 975.74 337.527 972.268 337.527 967.983V950.247C337.527 945.993 334.053 942.521 329.764 942.521H312.049C307.792 942.521 304.286 945.993 304.286 950.247V967.983C304.317 972.268 307.792 975.74 312.049 975.74Z" fill="#C7C0DD"/>
<path fill-rule="evenodd" clip-rule="evenodd" d="M373.553 975.74H391.269C395.526 975.74 399.031 972.268 399.031 967.983V950.247C399.031 945.993 395.526 942.521 391.269 942.521H373.553C369.296 942.521 365.791 945.993 365.791 950.247V967.983C365.791 972.268 369.296 975.74 373.553 975.74Z" fill="#C7C0DD"/>
<path fill-rule="evenodd" clip-rule="evenodd" d="M435.027 975.74H452.774C457.031 975.74 460.536 972.268 460.536 967.983V950.247C460.536 945.993 457.062 942.521 452.774 942.521H435.027C430.77 942.521 427.264 945.993 427.264 950.247V967.983C427.296 972.268 430.77 975.74 435.027 975.74Z" fill="white"/>
<path fill-rule="evenodd" clip-rule="evenodd" d="M496.531 975.74H514.247C518.504 975.74 522.01 972.268 522.01 967.983V950.247C522.01 945.993 518.535 942.521 514.247 942.521H496.531C492.275 942.521 488.769 945.993 488.769 950.247V967.983C488.769 972.268 492.275 975.74 496.531 975.74Z" fill="#C7C0DD"/>
<path fill-rule="evenodd" clip-rule="evenodd" d="M314.302 908.74H332.018C336.275 908.74 339.781 905.268 339.781 901.014V883.278C339.781 879.024 336.306 875.521 332.018 875.521H314.302C310.045 875.521 306.54 879.024 306.54 883.278V901.014C306.54 905.268 310.014 908.74 314.302 908.74Z" fill="#C7C0DD"/>
<path fill-rule="evenodd" clip-rule="evenodd" d="M375.776 908.74H393.491C397.748 908.74 401.254 905.268 401.254 901.014V883.278C401.254 879.024 397.78 875.521 393.491 875.521H375.776C371.519 875.521 368.013 879.024 368.013 883.278V901.014C368.013 905.268 371.519 908.74 375.776 908.74Z" fill="white"/>
<path fill-rule="evenodd" clip-rule="evenodd" d="M437.249 908.74H454.965C459.222 908.74 462.727 905.268 462.727 901.014V883.278C462.727 879.024 459.253 875.521 454.965 875.521H437.249C432.992 875.521 429.487 879.024 429.487 883.278V901.014C429.518 905.268 432.992 908.74 437.249 908.74Z" fill="#C7C0DD"/>
<path fill-rule="evenodd" clip-rule="evenodd" d="M373.553 1047.71H391.269C395.526 1047.71 399.031 1044.21 399.031 1039.96V1022.25C399.031 1017.97 395.557 1014.5 391.269 1014.5H373.553C369.296 1014.5 365.791 1017.97 365.791 1022.25V1039.96C365.791 1044.21 369.265 1047.71 373.553 1047.71Z" fill="white"/>
<path fill-rule="evenodd" clip-rule="evenodd" d="M435.027 1047.71H452.774C457.031 1047.71 460.536 1044.21 460.536 1039.96V1022.25C460.536 1017.97 457.062 1014.5 452.774 1014.5H435.027C430.77 1014.5 427.264 1017.97 427.264 1022.25V1039.96C427.296 1044.21 430.77 1047.71 435.027 1047.71Z" fill="#C7C0DD"/>
<path fill-rule="evenodd" clip-rule="evenodd" d="M260.779 296.164C260.779 294.069 262.469 292.411 264.535 292.411C266.601 292.411 268.291 294.1 268.291 296.164V313.087C268.291 315.151 266.601 316.84 264.535 316.84C262.469 316.84 260.779 315.151 260.779 313.087V296.164ZM235.144 309.896C233.673 308.426 233.673 306.049 235.144 304.579C236.615 303.108 238.994 303.108 240.465 304.579L252.422 316.559C253.893 318.029 253.893 320.406 252.422 321.876C250.951 323.346 248.572 323.346 247.101 321.876L235.144 309.896ZM226.724 337.735C224.658 337.735 222.968 336.046 222.968 333.981C222.968 331.917 224.658 330.228 226.724 330.228H243.658C245.723 330.228 247.414 331.917 247.414 333.981C247.414 336.046 245.723 337.735 243.658 337.735H226.724ZM240.465 363.384C238.994 364.854 236.615 364.854 235.144 363.384C233.673 361.914 233.673 359.536 235.144 358.066L247.101 346.118C248.572 344.647 250.951 344.647 252.422 346.118C253.893 347.588 253.893 349.965 252.422 351.435L240.465 363.384ZM268.322 371.798C268.322 373.862 266.632 375.551 264.566 375.551C262.5 375.551 260.81 373.862 260.81 371.798V354.876C260.81 352.78 262.5 351.122 264.566 351.122C266.632 351.122 268.322 352.811 268.322 354.876V371.798ZM293.957 358.066C295.428 359.536 295.428 361.914 293.957 363.384C292.486 364.854 290.107 364.854 288.636 363.384L276.679 351.404C275.208 349.934 275.208 347.556 276.679 346.086C278.15 344.616 280.529 344.616 282 346.086L293.957 358.066ZM302.377 330.228C304.443 330.228 306.133 331.917 306.133 333.981C306.133 336.046 304.443 337.735 302.377 337.735H285.443C283.378 337.735 281.687 336.046 281.687 333.981C281.687 331.917 283.378 330.228 285.443 330.228H302.377ZM288.636 304.579C290.107 303.108 292.486 303.108 293.957 304.579C295.428 306.049 295.428 308.426 293.957 309.896L282 321.876C280.529 323.346 278.15 323.346 276.679 321.876C275.208 320.406 275.208 318.029 276.679 316.559L288.636 304.579Z" fill="white"/>
<path fill-rule="evenodd" clip-rule="evenodd" d="M628.149 535.983C628.149 533.919 629.839 532.23 631.905 532.23C633.97 532.23 635.661 533.919 635.661 535.983V552.906C635.661 555.001 633.97 556.659 631.905 556.659C629.839 556.659 628.149 554.97 628.149 552.906V535.983ZM602.482 549.715C601.011 548.245 601.011 545.868 602.482 544.398C603.954 542.927 606.332 542.927 607.804 544.398L619.76 556.346C621.231 557.816 621.231 560.194 619.76 561.664C618.289 563.134 615.91 563.134 614.439 561.664L602.482 549.715ZM594.063 577.554C591.997 577.554 590.307 575.865 590.307 573.8C590.307 571.736 591.997 570.047 594.063 570.047H610.996C613.062 570.047 614.752 571.736 614.752 573.8C614.752 575.896 613.062 577.554 610.996 577.554H594.063ZM607.804 603.203C606.332 604.673 603.954 604.673 602.482 603.203C601.011 601.733 601.011 599.355 602.482 597.885L614.439 585.937C615.91 584.466 618.289 584.466 619.76 585.937C621.231 587.407 621.231 589.784 619.76 591.254L607.804 603.203ZM635.661 611.617C635.661 613.681 633.97 615.37 631.905 615.37C629.839 615.37 628.149 613.681 628.149 611.617V594.695C628.149 592.63 629.839 590.941 631.905 590.941C633.97 590.941 635.661 592.63 635.661 594.695V611.617ZM661.327 597.885C662.798 599.355 662.798 601.733 661.327 603.203C659.856 604.673 657.477 604.673 656.006 603.203L644.049 591.223C642.578 589.753 642.578 587.375 644.049 585.905C645.52 584.435 647.899 584.435 649.37 585.905L661.327 597.885ZM669.746 570.015C671.812 570.015 673.503 571.704 673.503 573.769C673.503 575.865 671.812 577.522 669.746 577.522H652.813C650.747 577.522 649.057 575.833 649.057 573.769C649.057 571.704 650.747 570.015 652.813 570.015H669.746ZM656.006 544.398C657.477 542.927 659.856 542.927 661.327 544.398C662.798 545.868 662.798 548.245 661.327 549.715L649.37 561.664C647.899 563.134 645.52 563.134 644.049 561.664C642.578 560.194 642.578 557.816 644.049 556.346L656.006 544.398Z" fill="white"/>
<path fill-rule="evenodd" clip-rule="evenodd" d="M1066.26 15.651C1066.26 13.5865 1067.95 11.8975 1070.01 11.8975C1072.08 11.8975 1073.77 13.5865 1073.77 15.651V32.5731C1073.77 34.6376 1072.08 36.3267 1070.01 36.3267C1067.92 36.3267 1066.26 34.6376 1066.26 32.5731V15.651ZM1040.62 29.3826C1039.15 27.9125 1039.15 25.5353 1040.62 24.0651C1042.09 22.595 1044.47 22.595 1045.94 24.0651L1057.93 36.0451C1059.4 37.5153 1059.4 39.8925 1057.93 41.3626C1056.46 42.8328 1054.08 42.8328 1052.61 41.3626L1040.62 29.3826ZM1032.2 57.2213C1030.14 57.2213 1028.45 55.5322 1028.45 53.4677C1028.45 51.4033 1030.14 49.7142 1032.2 49.7142H1049.14C1051.2 49.7142 1052.89 51.4033 1052.89 53.4677C1052.89 55.5322 1051.2 57.2213 1049.14 57.2213H1032.2ZM1045.94 82.8703C1044.47 84.3405 1042.09 84.3405 1040.62 82.8703C1039.15 81.4002 1039.15 79.023 1040.62 77.5529L1052.58 65.6041C1054.05 64.134 1056.43 64.134 1057.9 65.6041C1059.37 67.0743 1059.37 69.4515 1057.9 70.9216L1045.94 82.8703ZM1073.8 91.2845C1073.8 93.3489 1072.11 95.038 1070.04 95.038C1067.95 95.038 1066.29 93.3489 1066.29 91.2845V74.3624C1066.29 72.2979 1067.98 70.6088 1070.04 70.6088C1072.11 70.6088 1073.8 72.2979 1073.8 74.3624V91.2845ZM1099.47 77.5529C1100.94 79.023 1100.94 81.4002 1099.47 82.8703C1097.99 84.3405 1095.62 84.3405 1094.14 82.8703L1082.16 70.9216C1080.69 69.4515 1080.69 67.0743 1082.16 65.6041C1083.63 64.134 1086.01 64.134 1087.48 65.6041L1099.47 77.5529ZM1107.85 49.7142C1109.95 49.7142 1111.61 51.4033 1111.61 53.4677C1111.61 55.5322 1109.92 57.2213 1107.85 57.2213H1090.92C1088.82 57.2213 1087.13 55.5322 1087.13 53.4677C1087.13 51.4033 1088.82 49.7142 1090.92 49.7142H1107.85ZM1094.11 24.0651C1095.58 22.595 1097.96 22.595 1099.43 24.0651C1100.91 25.5353 1100.91 27.9125 1099.43 29.3826L1087.45 41.3626C1085.98 42.8328 1083.6 42.8328 1082.13 41.3626C1080.65 39.8925 1080.65 37.5153 1082.13 36.0451L1094.11 24.0651Z" fill="white"/>
<path fill-rule="evenodd" clip-rule="evenodd" d="M605.925 827.882C605.925 825.818 607.615 824.129 609.681 824.129C611.747 824.129 613.437 825.818 613.437 827.882V844.805C613.437 846.9 611.747 848.589 609.681 848.589C607.615 848.589 605.925 846.9 605.925 844.805V827.882ZM580.259 841.614C578.788 840.144 578.788 837.767 580.259 836.297C581.73 834.826 584.109 834.826 585.58 836.297L597.537 848.245C599.008 849.715 599.008 852.093 597.537 853.563C596.066 855.033 593.687 855.033 592.216 853.563L580.259 841.614ZM571.839 869.453C569.774 869.453 568.083 867.764 568.083 865.699C568.083 863.635 569.774 861.946 571.839 861.946H588.773C590.839 861.946 592.529 863.635 592.529 865.699C592.529 867.764 590.839 869.453 588.773 869.453H571.839ZM585.58 895.071C584.109 896.541 581.73 896.541 580.259 895.071C578.788 893.6 578.788 891.223 580.259 889.753L592.216 877.804C593.687 876.334 596.066 876.334 597.537 877.804C599.008 879.274 599.008 881.652 597.537 883.122L585.58 895.071ZM613.437 903.485C613.437 905.549 611.747 907.238 609.681 907.238C607.615 907.238 605.925 905.549 605.925 903.485V886.563C605.925 884.498 607.615 882.809 609.681 882.809C611.747 882.809 613.437 884.498 613.437 886.563V903.485ZM639.103 889.753C640.575 891.223 640.575 893.6 639.103 895.071C637.632 896.541 635.254 896.541 633.782 895.071L621.826 883.122C620.355 881.652 620.355 879.274 621.826 877.804C623.297 876.334 625.676 876.334 627.147 877.804L639.103 889.753ZM647.523 861.914C649.589 861.914 651.279 863.603 651.279 865.668C651.279 867.732 649.589 869.421 647.523 869.421H630.59C628.524 869.421 626.834 867.732 626.834 865.668C626.834 863.603 628.524 861.914 630.59 861.914H647.523ZM633.782 836.265C635.254 834.795 637.632 834.795 639.103 836.265C640.575 837.735 640.575 840.113 639.103 841.583L627.147 853.532C625.676 855.002 623.297 855.002 621.826 853.532C620.355 852.061 620.355 849.684 621.826 848.214L633.782 836.265Z" fill="#E7E2EF"/>
</g>
</g>
<defs>
<clipPath id="clip0">
<rect x="-284" y="-145" width="2068" height="1697" fill="white"/>
</clipPath>
</defs>
</svg>
